STARTFONT 2.1
FONT -DIGITAL-VT220-Bold-I-Normal-80col-40-400-75-75-c-200-iso10646-1
SIZE 40 75 75
FONTBOUNDINGBOX 33 40 -6 -8
STARTPROPERTIES 21
FOUNDRY "DIGITAL"
FAMILY_NAME "vt220"
WEIGHT_NAME "Bold"
RELATIVE_SETWIDTH 50
SLANT "I"
SETWIDTH_NAME "Normal"
ADD_STYLE_NAME "80col"
PIXEL_SIZE 40
POINT_SIZE 400
RESOLUTION_X 75
RESOLUTION_Y 75
SPACING "c"
CHARSET_REGISTRY "ISO10646"
CHARSET_ENCODING "1"
CAP_HEIGHT 28
X_HEIGHT 20
WEIGHT 10
QUAD_WIDTH 20
FONT_ASCENT 32
FONT_DESCENT 8
AVERAGE_WIDTH 200
ENDPROPERTIES
CHARS 237
STARTCHAR U+00FD
ENCODING 253
SWIDTH 1000 0
DWIDTH 20 0
BBX 33 40 -6 -8
BITMAP
0000000000
0000000000
0000000000
0000000000
0000000000
0000000000
0000000000
0000000000
0000000000
0000000000
0000000000
0000000000
0000000000
0000000000
0000000000
0000000000
0000000000
0000000000
0000000000
0000000000
0000000000
0000000000
0000000000
0000000000
0000000000
0000000000
0000000000
0000000000
0000000000
0000000000
0000000000
0000000000
0000000000
0000000000
0000000000
0000000000
0000000000
0000000000
0000000000
0000000000
ENDCHAR
STARTCHAR U+25A1
ENCODING 9633
SWIDTH 1000 0
DWIDTH 20 0
BBX 33 40 -6 -8
BITMAP
0000000000
0000000000
0000000000
0000000000
001ffff000
001ffff000
003fffe000
003fffe000
003e03e000
007c07c000
007c07c000
007c07c000
00f80f8000
00f80f8000
00f80f8000
01f01f0000
01f01f0000
01f01f0000
03e03e0000
03e03e0000
03e03e0000
07c07c0000
07c07c0000
07c07c0000
0f80f80000
0f80f80000
0f80f80000
1f01f00000
1ffff00000
1ffff00000
3fffe00000
3fffe00000
0000000000
0000000000
0000000000
0000000000
0000000000
0000000000
0000000000
0000000000
ENDCHAR
STARTCHAR U+00FE
ENCODING 254
SWIDTH 1000 0
DWIDTH 20 0
BBX 33 40 -6 -8
BITMAP
0000000000
0000000000
0000000000
0000000000
001f000000
001f000000
003e000000
003e000000
003e000000
007c000000
007c000000
007c000000
00fffe0000
00fffe0000
00fffe0000
01fffc0000
01fc1f0000
01fc1f0000
03f83e0000
03f83e0000
03f83e0000
07f07c0000
07f07c0000
07f07c0000
0fffe00000
0fffe00000
0fffe00000
1fffc00000
1f00000000
1f00000000
3e00000000
3e00000000
3e00000000
7c00000000
7c00000000
7c00000000
f800000000
f800000000
f800000000
f000000000
ENDCHAR
STARTCHAR U+00FF
ENCODING 255
SWIDTH 1000 0
DWIDTH 20 0
BBX 33 40 -6 -8
BITMAP
0000000000
0000000000
0000000000
0000000000
0007c7c000
0007c7c000
000f8f8000
000f8f8000
0000000000
0000000000
0000000000
0000000000
00f83e0000
00f83e0000
00f83e0000
01f07c0000
01f07c0000
01f07c0000
03e0f80000
03e0f80000
03e3f80000
07c7f00000
07c7f00000
07c7f00000
03ffe00000
03ffe00000
03ffe00000
07ffc00000
0007c00000
0007c00000
000f800000
000f800000
3e0f800000
7c1f000000
7c1f000000
7c1f000000
3ff8000000
3ff8000000
3ff8000000
7ff0000000
ENDCHAR
STARTCHAR U+00FC
ENCODING 252
SWIDTH 1000 0
DWIDTH 20 0
BBX 33 40 -6 -8
BITMAP
0000000000
0000000000
0000000000
0000000000
0007c7c000
0007c7c000
000f8f8000
000f8f8000
0000000000
0000000000
0000000000
0000000000
00f83e0000
00f83e0000
00f83e0000
01f07c0000
01f07c0000
01f07c0000
03e0f80000
03e0f80000
03e0f80000
07c1f00000
07c1f00000
07c1f00000
0f83e00000
0f83e00000
0f83e00000
1f07c00000
07fff00000
07fff00000
0fffe00000
0fffe00000
0000000000
0000000000
0000000000
0000000000
0000000000
0000000000
0000000000
0000000000
ENDCHAR
STARTCHAR U+00FB
ENCODING 251
SWIDTH 1000 0
DWIDTH 20 0
BBX 33 40 -6 -8
BITMAP
0000ff8000
0000ff8000
0000ff8000
0001ff0000
0007c7c000
0007c7c000
000f8f8000
000f8f8000
0000000000
0000000000
0000000000
0000000000
00f83e0000
00f83e0000
00f83e0000
01f07c0000
01f07c0000
01f07c0000
03e0f80000
03e0f80000
03e0f80000
07c1f00000
07c1f00000
07c1f00000
0f83e00000
0f83e00000
0f83e00000
1f07c00000
07fff00000
07fff00000
0fffe00000
0fffe00000
0000000000
0000000000
0000000000
0000000000
0000000000
0000000000
0000000000
0000000000
ENDCHAR
STARTCHAR U+00FA
ENCODING 250
SWIDTH 1000 0
DWIDTH 20 0
BBX 33 40 -6 -8
BITMAP
0000000000
0000000000
0000000000
0000000000
00007f0000
00007f0000
0000fe0000
0000fe0000
000fe00000
001fc00000
001fc00000
001fc00000
00f83e0000
00f83e0000
00f83e0000
01f07c0000
01f07c0000
01f07c0000
03e0f80000
03e0f80000
03e0f80000
07c1f00000
07c1f00000
07c1f00000
0f83e00000
0f83e00000
0f83e00000
1f07c00000
07fff00000
07fff00000
0fffe00000
0fffe00000
0000000000
0000000000
0000000000
0000000000
0000000000
0000000000
0000000000
0000000000
ENDCHAR
STARTCHAR U+00F9
ENCODING 249
SWIDTH 1000 0
DWIDTH 20 0
BBX 33 40 -6 -8
BITMAP
0000000000
0000000000
0000000000
0000000000
0007f00000
0007f00000
000fe00000
000fe00000
0000fe0000
0001fc0000
0001fc0000
0001fc0000
00f83e0000
00f83e0000
00f83e0000
01f07c0000
01f07c0000
01f07c0000
03e0f80000
03e0f80000
03e0f80000
07c1f00000
07c1f00000
07c1f00000
0f83e00000
0f83e00000
0f83e00000
1f07c00000
07fff00000
07fff00000
0fffe00000
0fffe00000
0000000000
0000000000
0000000000
0000000000
0000000000
0000000000
0000000000
0000000000
ENDCHAR
STARTCHAR U+00F8
ENCODING 248
SWIDTH 1000 0
DWIDTH 20 0
BBX 33 40 -6 -8
BITMAP
0000000000
0000000000
0000000000
0000000000
0000000000
0000000000
0000000000
0000000000
000003e000
000007c000
000007c000
000007c000
003ffe0000
003ffe0000
003ffe0000
007ffc0000
01f1ff0000
01f1ff0000
03e3fe0000
03e3fe0000
03efbe0000
07df7c0000
07df7c0000
07df7c0000
0ff8f80000
0ff8f80000
0ff8f80000
1ff1f00000
07ffc00000
07ffc00000
0fff800000
0fff800000
3e00000000
7c00000000
7c00000000
7c00000000
0000000000
0000000000
0000000000
0000000000
ENDCHAR
STARTCHAR U+0153
ENCODING 339
SWIDTH 1000 0
DWIDTH 20 0
BBX 33 40 -6 -8
BITMAP
0000000000
0000000000
0000000000
0000000000
0000000000
0000000000
0000000000
0000000000
0000000000
0000000000
0000000000
0000000000
003ffe0000
003ffe0000
003ffe0000
007ffc0000
01f7df0000
01f7df0000
03efbe0000
03efbe0000
03effe0000
07dffc0000
07dffc0000
07dffc0000
0fbe000000
0fbe000000
0fbe000000
1f7c000000
07fff00000
07fff00000
0fffe00000
0fffe00000
0000000000
0000000000
0000000000
0000000000
0000000000
0000000000
0000000000
0000000000
ENDCHAR
STARTCHAR U+00F6
ENCODING 246
SWIDTH 1000 0
DWIDTH 20 0
BBX 33 40 -6 -8
BITMAP
0000000000
0000000000
0000000000
0000000000
0007c7c000
0007c7c000
000f8f8000
000f8f8000
0000000000
0000000000
0000000000
0000000000
003ffe0000
003ffe0000
003ffe0000
007ffc0000
01f01f0000
01f01f0000
03e03e0000
03e03e0000
03e03e0000
07c07c0000
07c07c0000
07c07c0000
0f80f80000
0f80f80000
0f80f80000
1f01f00000
07ffc00000
07ffc00000
0fff800000
0fff800000
0000000000
0000000000
0000000000
0000000000
0000000000
0000000000
0000000000
0000000000
ENDCHAR
STARTCHAR U+00F5
ENCODING 245
SWIDTH 1000 0
DWIDTH 20 0
BBX 33 40 -6 -8
BITMAP
0003fbe000
0003fbe000
0003fbe000
0007f7c000
001f7f0000
001f7f0000
003efe0000
003efe0000
0000000000
0000000000
0000000000
0000000000
003ffe0000
003ffe0000
003ffe0000
007ffc0000
01f01f0000
01f01f0000
03e03e0000
03e03e0000
03e03e0000
07c07c0000
07c07c0000
07c07c0000
0f80f80000
0f80f80000
0f80f80000
1f01f00000
07ffc00000
07ffc00000
0fff800000
0fff800000
0000000000
0000000000
0000000000
0000000000
0000000000
0000000000
0000000000
0000000000
ENDCHAR
STARTCHAR U+00F4
ENCODING 244
SWIDTH 1000 0
DWIDTH 20 0
BBX 33 40 -6 -8
BITMAP
0000ff8000
0000ff8000
0000ff8000
0001ff0000
0007c7c000
0007c7c000
000f8f8000
000f8f8000
0000000000
0000000000
0000000000
0000000000
003ffe0000
003ffe0000
003ffe0000
007ffc0000
01f01f0000
01f01f0000
03e03e0000
03e03e0000
03e03e0000
07c07c0000
07c07c0000
07c07c0000
0f80f80000
0f80f80000
0f80f80000
1f01f00000
07ffc00000
07ffc00000
0fff800000
0fff800000
0000000000
0000000000
0000000000
0000000000
0000000000
0000000000
0000000000
0000000000
ENDCHAR
STARTCHAR U+00F3
ENCODING 243
SWIDTH 1000 0
DWIDTH 20 0
BBX 33 40 -6 -8
BITMAP
0000000000
0000000000
0000000000
0000000000
00007f0000
00007f0000
0000fe0000
0000fe0000
000fe00000
001fc00000
001fc00000
001fc00000
003ffe0000
003ffe0000
003ffe0000
007ffc0000
01f01f0000
01f01f0000
03e03e0000
03e03e0000
03e03e0000
07c07c0000
07c07c0000
07c07c0000
0f80f80000
0f80f80000
0f80f80000
1f01f00000
07ffc00000
07ffc00000
0fff800000
0fff800000
0000000000
0000000000
0000000000
0000000000
0000000000
0000000000
0000000000
0000000000
ENDCHAR
STARTCHAR U+00F2
ENCODING 242
SWIDTH 1000 0
DWIDTH 20 0
BBX 33 40 -6 -8
BITMAP
0000000000
0000000000
0000000000
0000000000
0001fc0000
0001fc0000
0003f80000
0003f80000
00003f8000
00007f0000
00007f0000
00007f0000
003ffe0000
003ffe0000
003ffe0000
007ffc0000
01f01f0000
01f01f0000
03e03e0000
03e03e0000
03e03e0000
07c07c0000
07c07c0000
07c07c0000
0f80f80000
0f80f80000
0f80f80000
1f01f00000
07ffc00000
07ffc00000
0fff800000
0fff800000
0000000000
0000000000
0000000000
0000000000
0000000000
0000000000
0000000000
0000000000
ENDCHAR
STARTCHAR U+00F1
ENCODING 241
SWIDTH 1000 0
DWIDTH 20 0
BBX 33 40 -6 -8
BITMAP
0003fbe000
0003fbe000
0003fbe000
0007f7c000
001f7f0000
001f7f0000
003efe0000
003efe0000
0000000000
0000000000
0000000000
0000000000
00fffe0000
00fffe0000
00fffe0000
01fffc0000
01fc1f0000
01fc1f0000
03f83e0000
03f83e0000
03e03e0000
07c07c0000
07c07c0000
07c07c0000
0f80f80000
0f80f80000
0f80f80000
1f01f00000
1f01f00000
1f01f00000
3e03e00000
3e03e00000
0000000000
0000000000
0000000000
0000000000
0000000000
0000000000
0000000000
0000000000
ENDCHAR
STARTCHAR U+00F0
ENCODING 240
SWIDTH 1000 0
DWIDTH 20 0
BBX 33 40 -6 -8
BITMAP
00003ef800
00003ef800
00003ef800
00007df000
00001fc000
00001fc000
00003f8000
00003f8000
0000fbe000
0001f7c000
0001f7c000
0001f7c000
003fff8000
003fff8000
003fff8000
007fff0000
01f07f0000
01f07f0000
03e0fe0000
03e0fe0000
03e03e0000
07c07c0000
07c07c0000
07c07c0000
0f83e00000
0f83e00000
0f83e00000
1f07c00000
07ff000000
07ff000000
0ffe000000
0ffe000000
0000000000
0000000000
0000000000
0000000000
0000000000
0000000000
0000000000
0000000000
ENDCHAR
STARTCHAR U+00EF
ENCODING 239
SWIDTH 1000 0
DWIDTH 20 0
BBX 33 40 -6 -8
BITMAP
0000000000
0000000000
0000000000
0000000000
0007c7c000
0007c7c000
000f8f8000
000f8f8000
0000000000
0000000000
0000000000
0000000000
000fe00000
000fe00000
000fe00000
001fc00000
0007c00000
0007c00000
000f800000
000f800000
000f800000
001f000000
001f000000
001f000000
003e000000
003e000000
003e000000
007c000000
07ffc00000
07ffc00000
0fff800000
0fff800000
0000000000
0000000000
0000000000
0000000000
0000000000
0000000000
0000000000
0000000000
ENDCHAR
STARTCHAR U+00EE
ENCODING 238
SWIDTH 1000 0
DWIDTH 20 0
BBX 33 40 -6 -8
BITMAP
0000ff8000
0000ff8000
0000ff8000
0001ff0000
0007c7c000
0007c7c000
000f8f8000
000f8f8000
0000000000
0000000000
0000000000
0000000000
000fe00000
000fe00000
000fe00000
001fc00000
0007c00000
0007c00000
000f800000
000f800000
000f800000
001f000000
001f000000
001f000000
003e000000
003e000000
003e000000
007c000000
07ffc00000
07ffc00000
0fff800000
0fff800000
0000000000
0000000000
0000000000
0000000000
0000000000
0000000000
0000000000
0000000000
ENDCHAR
STARTCHAR U+00ED
ENCODING 237
SWIDTH 1000 0
DWIDTH 20 0
BBX 33 40 -6 -8
BITMAP
0000000000
0000000000
0000000000
0000000000
00007f0000
00007f0000
0000fe0000
0000fe0000
000fe00000
001fc00000
001fc00000
001fc00000
000fe00000
000fe00000
000fe00000
001fc00000
0007c00000
0007c00000
000f800000
000f800000
000f800000
001f000000
001f000000
001f000000
003e000000
003e000000
003e000000
007c000000
07ffc00000
07ffc00000
0fff800000
0fff800000
0000000000
0000000000
0000000000
0000000000
0000000000
0000000000
0000000000
0000000000
ENDCHAR
STARTCHAR U+00EC
ENCODING 236
SWIDTH 1000 0
DWIDTH 20 0
BBX 33 40 -6 -8
BITMAP
0000000000
0000000000
0000000000
0000000000
0007f00000
0007f00000
000fe00000
000fe00000
0000fe0000
0001fc0000
0001fc0000
0001fc0000
000fe00000
000fe00000
000fe00000
001fc00000
0007c00000
0007c00000
000f800000
000f800000
000f800000
001f000000
001f000000
001f000000
003e000000
003e000000
003e000000
007c000000
07ffc00000
07ffc00000
0fff800000
0fff800000
0000000000
0000000000
0000000000
0000000000
0000000000
0000000000
0000000000
0000000000
ENDCHAR
STARTCHAR U+00EB
ENCODING 235
SWIDTH 1000 0
DWIDTH 20 0
BBX 33 40 -6 -8
BITMAP
0000000000
0000000000
0000000000
0000000000
0007c7c000
0007c7c000
000f8f8000
000f8f8000
0000000000
0000000000
0000000000
0000000000
003ffe0000
003ffe0000
003ffe0000
007ffc0000
01f01f0000
01f01f0000
03e03e0000
03e03e0000
03fffe0000
07fffc0000
07fffc0000
07fffc0000
0f80000000
0f80000000
0f80000000
1f00000000
07ffc00000
07ffc00000
0fff800000
0fff800000
0000000000
0000000000
0000000000
0000000000
0000000000
0000000000
0000000000
0000000000
ENDCHAR
STARTCHAR U+00EA
ENCODING 234
SWIDTH 1000 0
DWIDTH 20 0
BBX 33 40 -6 -8
BITMAP
0000ff8000
0000ff8000
0000ff8000
0001ff0000
0007c7c000
0007c7c000
000f8f8000
000f8f8000
0000000000
0000000000
0000000000
0000000000
003ffe0000
003ffe0000
003ffe0000
007ffc0000
01f01f0000
01f01f0000
03e03e0000
03e03e0000
03fffe0000
07fffc0000
07fffc0000
07fffc0000
0f80000000
0f80000000
0f80000000
1f00000000
07ffc00000
07ffc00000
0fff800000
0fff800000
0000000000
0000000000
0000000000
0000000000
0000000000
0000000000
0000000000
0000000000
ENDCHAR
STARTCHAR U+00E9
ENCODING 233
SWIDTH 1000 0
DWIDTH 20 0
BBX 33 40 -6 -8
BITMAP
0000000000
0000000000
0000000000
0000000000
00007f0000
00007f0000
0000fe0000
0000fe0000
000fe00000
001fc00000
001fc00000
001fc00000
003ffe0000
003ffe0000
003ffe0000
007ffc0000
01f01f0000
01f01f0000
03e03e0000
03e03e0000
03fffe0000
07fffc0000
07fffc0000
07fffc0000
0f80000000
0f80000000
0f80000000
1f00000000
07ffc00000
07ffc00000
0fff800000
0fff800000
0000000000
0000000000
0000000000
0000000000
0000000000
0000000000
0000000000
0000000000
ENDCHAR
STARTCHAR U+00E8
ENCODING 232
SWIDTH 1000 0
DWIDTH 20 0
BBX 33 40 -6 -8
BITMAP
0000000000
0000000000
0000000000
0000000000
0001fc0000
0001fc0000
0003f80000
0003f80000
00003f8000
00007f0000
00007f0000
00007f0000
003ffe0000
003ffe0000
003ffe0000
007ffc0000
01f01f0000
01f01f0000
03e03e0000
03e03e0000
03fffe0000
07fffc0000
07fffc0000
07fffc0000
0f80000000
0f80000000
0f80000000
1f00000000
07ffc00000
07ffc00000
0fff800000
0fff800000
0000000000
0000000000
0000000000
0000000000
0000000000
0000000000
0000000000
0000000000
ENDCHAR
STARTCHAR U+00E7
ENCODING 231
SWIDTH 1000 0
DWIDTH 20 0
BBX 33 40 -6 -8
BITMAP
0000000000
0000000000
0000000000
0000000000
0000000000
0000000000
0000000000
0000000000
0000000000
0000000000
0000000000
0000000000
003ffe0000
003ffe0000
003ffe0000
007ffc0000
01f01f0000
01f01f0000
03e03e0000
03e03e0000
03e0000000
07c0000000
07c0000000
07c0000000
0f80f80000
0f80f80000
0f80f80000
1f01f00000
07ffc00000
07ffc00000
0fff800000
0fff800000
003e000000
007c000000
007c000000
007c000000
0ff8000000
0ff8000000
0ff8000000
1ff0000000
ENDCHAR
STARTCHAR U+00E6
ENCODING 230
SWIDTH 1000 0
DWIDTH 20 0
BBX 33 40 -6 -8
BITMAP
0000000000
0000000000
0000000000
0000000000
0000000000
0000000000
0000000000
0000000000
0000000000
0000000000
0000000000
0000000000
003ffe0000
003ffe0000
003ffe0000
007ffc0000
0007df0000
0007df0000
000fbe0000
000fbe0000
00fffe0000
01fffc0000
01fffc0000
01fffc0000
0fbe000000
0fbe000000
0fbe000000
1f7c000000
07fff00000
07fff00000
0fffe00000
0fffe00000
0000000000
0000000000
0000000000
0000000000
0000000000
0000000000
0000000000
0000000000
ENDCHAR
STARTCHAR U+00E5
ENCODING 229
SWIDTH 1000 0
DWIDTH 20 0
BBX 33 40 -6 -8
BITMAP
0000ff8000
0000ff8000
0000ff8000
0001ff0000
0007c7c000
0007c7c000
000f8f8000
000f8f8000
0003fe0000
0007fc0000
0007fc0000
0007fc0000
003ffe0000
003ffe0000
003ffe0000
007ffc0000
00001f0000
00001f0000
00003e0000
00003e0000
00fffe0000
01fffc0000
01fffc0000
01fffc0000
0f83f80000
0f83f80000
0f83f80000
1f07f00000
07fff00000
07fff00000
0fffe00000
0fffe00000
0000000000
0000000000
0000000000
0000000000
0000000000
0000000000
0000000000
0000000000
ENDCHAR
STARTCHAR U+00E4
ENCODING 228
SWIDTH 1000 0
DWIDTH 20 0
BBX 33 40 -6 -8
BITMAP
0000000000
0000000000
0000000000
0000000000
0007c7c000
0007c7c000
000f8f8000
000f8f8000
0000000000
0000000000
0000000000
0000000000
003ffe0000
003ffe0000
003ffe0000
007ffc0000
00001f0000
00001f0000
00003e0000
00003e0000
00fffe0000
01fffc0000
01fffc0000
01fffc0000
0f83f80000
0f83f80000
0f83f80000
1f07f00000
07fff00000
07fff00000
0fffe00000
0fffe00000
0000000000
0000000000
0000000000
0000000000
0000000000
0000000000
0000000000
0000000000
ENDCHAR
STARTCHAR U+00E3
ENCODING 227
SWIDTH 1000 0
DWIDTH 20 0
BBX 33 40 -6 -8
BITMAP
0000fef800
0000fef800
0000fef800
0001fdf000
0007dfc000
0007dfc000
000fbf8000
000fbf8000
0000000000
0000000000
0000000000
0000000000
003ffe0000
003ffe0000
003ffe0000
007ffc0000
00001f0000
00001f0000
00003e0000
00003e0000
00fffe0000
01fffc0000
01fffc0000
01fffc0000
0f83f80000
0f83f80000
0f83f80000
1f07f00000
07fff00000
07fff00000
0fffe00000
0fffe00000
0000000000
0000000000
0000000000
0000000000
0000000000
0000000000
0000000000
0000000000
ENDCHAR
STARTCHAR U+00E2
ENCODING 226
SWIDTH 1000 0
DWIDTH 20 0
BBX 33 40 -6 -8
BITMAP
0000ff8000
0000ff8000
0000ff8000
0001ff0000
0007c7c000
0007c7c000
000f8f8000
000f8f8000
0000000000
0000000000
0000000000
0000000000
003ffe0000
003ffe0000
003ffe0000
007ffc0000
00001f0000
00001f0000
00003e0000
00003e0000
00fffe0000
01fffc0000
01fffc0000
01fffc0000
0f83f80000
0f83f80000
0f83f80000
1f07f00000
07fff00000
07fff00000
0fffe00000
0fffe00000
0000000000
0000000000
0000000000
0000000000
0000000000
0000000000
0000000000
0000000000
ENDCHAR
STARTCHAR U+00E1
ENCODING 225
SWIDTH 1000 0
DWIDTH 20 0
BBX 33 40 -6 -8
BITMAP
0000000000
0000000000
0000000000
0000000000
00007f0000
00007f0000
0000fe0000
0000fe0000
000fe00000
001fc00000
001fc00000
001fc00000
003ffe0000
003ffe0000
003ffe0000
007ffc0000
00001f0000
00001f0000
00003e0000
00003e0000
00fffe0000
01fffc0000
01fffc0000
01fffc0000
0f83f80000
0f83f80000
0f83f80000
1f07f00000
07fff00000
07fff00000
0fffe00000
0fffe00000
0000000000
0000000000
0000000000
0000000000
0000000000
0000000000
0000000000
0000000000
ENDCHAR
STARTCHAR U+00E0
ENCODING 224
SWIDTH 1000 0
DWIDTH 20 0
BBX 33 40 -6 -8
BITMAP
0000000000
0000000000
0000000000
0000000000
0001fc0000
0001fc0000
0003f80000
0003f80000
00003f8000
00007f0000
00007f0000
00007f0000
003ffe0000
003ffe0000
003ffe0000
007ffc0000
00001f0000
00001f0000
00003e0000
00003e0000
00fffe0000
01fffc0000
01fffc0000
01fffc0000
0f83f80000
0f83f80000
0f83f80000
1f07f00000
07fff00000
07fff00000
0fffe00000
0fffe00000
0000000000
0000000000
0000000000
0000000000
0000000000
0000000000
0000000000
0000000000
ENDCHAR
STARTCHAR U+00DF
ENCODING 223
SWIDTH 1000 0
DWIDTH 20 0
BBX 33 40 -6 -8
BITMAP
0000000000
0000000000
0000000000
0000000000
0001ff0000
0001ff0000
0003fe0000
0003fe0000
000f8f8000
001f1f0000
001f1f0000
001f1f0000
00f83e0000
00f83e0000
00f83e0000
01f07c0000
01fff00000
01fff00000
03ffe00000
03ffe00000
03e0f80000
07c1f00000
07c1f00000
07c1f00000
0ff8f80000
0ff8f80000
0ff8f80000
1ff1f00000
1f7fc00000
1f7fc00000
3eff800000
3eff800000
3e00000000
7c00000000
7c00000000
7c00000000
0000000000
0000000000
0000000000
0000000000
ENDCHAR
STARTCHAR U+00DE
ENCODING 222
SWIDTH 1000 0
DWIDTH 20 0
BBX 33 40 -6 -8
BITMAP
0000000000
0000000000
0000000000
0000000000
001fc00000
001fc00000
003f800000
003f800000
000fff8000
001fff0000
001fff0000
001fff0000
003e0f8000
003e0f8000
003e0f8000
007c1f0000
007c1f0000
007c1f0000
00f83e0000
00f83e0000
00f83e0000
01f07c0000
01f07c0000
01f07c0000
03ffe00000
03ffe00000
03ffe00000
07ffc00000
1fc0000000
1fc0000000
3f80000000
3f80000000
0000000000
0000000000
0000000000
0000000000
0000000000
0000000000
0000000000
0000000000
ENDCHAR
STARTCHAR U+0178
ENCODING 376
SWIDTH 1000 0
DWIDTH 20 0
BBX 33 40 -6 -8
BITMAP
0003e3e000
0003e3e000
0003e3e000
0007c7c000
0000000000
0000000000
0000000000
0000000000
003e03e000
007c07c000
007c07c000
007c07c000
003e3e0000
003e3e0000
003e3e0000
007c7c0000
001ff00000
001ff00000
003fe00000
003fe00000
000f800000
001f000000
001f000000
001f000000
003e000000
003e000000
003e000000
007c000000
007c000000
007c000000
00f8000000
00f8000000
0000000000
0000000000
0000000000
0000000000
0000000000
0000000000
0000000000
0000000000
ENDCHAR
STARTCHAR U+00DC
ENCODING 220
SWIDTH 1000 0
DWIDTH 20 0
BBX 33 40 -6 -8
BITMAP
0003e3e000
0003e3e000
0003e3e000
0007c7c000
0000000000
0000000000
0000000000
0000000000
003e03e000
007c07c000
007c07c000
007c07c000
00f80f8000
00f80f8000
00f80f8000
01f01f0000
01f01f0000
01f01f0000
03e03e0000
03e03e0000
03e03e0000
07c07c0000
07c07c0000
07c07c0000
0f80f80000
0f80f80000
0f80f80000
1f01f00000
07ffc00000
07ffc00000
0fff800000
0fff800000
0000000000
0000000000
0000000000
0000000000
0000000000
0000000000
0000000000
0000000000
ENDCHAR
STARTCHAR U+00DB
ENCODING 219
SWIDTH 1000 0
DWIDTH 20 0
BBX 33 40 -6 -8
BITMAP
00003e0000
00003e0000
00003e0000
00007c0000
0001ff0000
0001ff0000
0003fe0000
0003fe0000
003e06e000
007c07c000
007c07c000
007c07c000
00f80f8000
00f80f8000
00f80f8000
01f01f0000
01f01f0000
01f01f0000
03e03e0000
03e03e0000
03e03e0000
07c07c0000
07c07c0000
07c07c0000
0f80f80000
0f80f80000
0f80f80000
1f01f00000
07ffc00000
07ffc00000
0fff800000
0fff800000
0000000000
0000000000
0000000000
0000000000
0000000000
0000000000
0000000000
0000000000
ENDCHAR
STARTCHAR U+00DA
ENCODING 218
SWIDTH 1000 0
DWIDTH 20 0
BBX 33 40 -6 -8
BITMAP
00000fe000
00000fe000
00000fe000
00001fc000
0001fc0000
0001fc0000
0003f80000
0003f80000
003e03e000
007c07c000
007c07c000
007c07c000
00f80f8000
00f80f8000
00f80f8000
01f01f0000
01f01f0000
01f01f0000
03e03e0000
03e03e0000
03e03e0000
07c07c0000
07c07c0000
07c07c0000
0f80f80000
0f80f80000
0f80f80000
1f01f00000
07ffc00000
07ffc00000
0fff800000
0fff800000
0000000000
0000000000
0000000000
0000000000
0000000000
0000000000
0000000000
0000000000
ENDCHAR
STARTCHAR U+00D9
ENCODING 217
SWIDTH 1000 0
DWIDTH 20 0
BBX 33 40 -6 -8
BITMAP
0003f80000
0003f80000
0003f80000
0007f00000
00007f0000
00007f0000
0000fe0000
0000fe0000
003e06e000
007c07c000
007c07c000
007c07c000
00f80f8000
00f80f8000
00f80f8000
01f01f0000
01f01f0000
01f01f0000
03e03e0000
03e03e0000
03e03e0000
07c07c0000
07c07c0000
07c07c0000
0f80f80000
0f80f80000
0f80f80000
1f01f00000
07ffc00000
07ffc00000
0fff800000
0fff800000
0000000000
0000000000
0000000000
0000000000
0000000000
0000000000
0000000000
0000000000
ENDCHAR
STARTCHAR U+00D8
ENCODING 216
SWIDTH 1000 0
DWIDTH 20 0
BBX 33 40 -6 -8
BITMAP
000000f800
000000f800
000000f800
000001f000
0007ffc000
0007ffc000
000fff8000
000fff8000
003e0fe000
007c1fc000
007c1fc000
007c1fc000
00f8ff8000
00f8ff8000
00f8ff8000
01f1ff0000
01f7df0000
01f7df0000
03efbe0000
03efbe0000
03fe3e0000
07fc7c0000
07fc7c0000
07fc7c0000
0fe0f80000
0fe0f80000
0fe0f80000
1fc1f00000
07ffc00000
07ffc00000
0fff800000
0fff800000
3e00000000
7c00000000
7c00000000
7c00000000
0000000000
0000000000
0000000000
0000000000
ENDCHAR
STARTCHAR U+0152
ENCODING 338
SWIDTH 1000 0
DWIDTH 20 0
BBX 33 40 -6 -8
BITMAP
0000000000
0000000000
0000000000
0000000000
0007fff000
0007fff000
000fffe000
000fffe000
003ef80000
007df00000
007df00000
007df00000
00fbe00000
00fbe00000
00fbe00000
01f7c00000
01f7fc0000
01f7fc0000
03eff80000
03eff80000
03ef800000
07df000000
07df000000
07df000000
0fbe000000
0fbe000000
0fbe000000
1f7c000000
07fff00000
07fff00000
0fffe00000
0fffe00000
0000000000
0000000000
0000000000
0000000000
0000000000
0000000000
0000000000
0000000000
ENDCHAR
STARTCHAR U+00D6
ENCODING 214
SWIDTH 1000 0
DWIDTH 20 0
BBX 33 40 -6 -8
BITMAP
0003e3e000
0003e3e000
0003e3e000
0007c7c000
0000000000
0000000000
0000000000
0000000000
000fff8000
001fff0000
001fff0000
001fff0000
00f80f8000
00f80f8000
00f80f8000
01f01f0000
01f01f0000
01f01f0000
03e03e0000
03e03e0000
03e03e0000
07c07c0000
07c07c0000
07c07c0000
0f80f80000
0f80f80000
0f80f80000
1f01f00000
07ffc00000
07ffc00000
0fff800000
0fff800000
0000000000
0000000000
0000000000
0000000000
0000000000
0000000000
0000000000
0000000000
ENDCHAR
STARTCHAR U+00D5
ENCODING 213
SWIDTH 1000 0
DWIDTH 20 0
BBX 33 40 -6 -8
BITMAP
0003fbe000
0003fbe000
0003fbe000
0007f7c000
001f7f0000
001f7f0000
003efe0000
003efe0000
000fff8000
001fff0000
001fff0000
001fff0000
00f80f8000
00f80f8000
00f80f8000
01f01f0000
01f01f0000
01f01f0000
03e03e0000
03e03e0000
03e03e0000
07c07c0000
07c07c0000
07c07c0000
0f80f80000
0f80f80000
0f80f80000
1f01f00000
07ffc00000
07ffc00000
0fff800000
0fff800000
0000000000
0000000000
0000000000
0000000000
0000000000
0000000000
0000000000
0000000000
ENDCHAR
STARTCHAR U+00D4
ENCODING 212
SWIDTH 1000 0
DWIDTH 20 0
BBX 33 40 -6 -8
BITMAP
0000ff8000
0000ff8000
0000ff8000
0001ff0000
0007c7c000
0007c7c000
000f8f8000
000f8f8000
000fff8000
001fff0000
001fff0000
001fff0000
00f80f8000
00f80f8000
00f80f8000
01f01f0000
01f01f0000
01f01f0000
03e03e0000
03e03e0000
03e03e0000
07c07c0000
07c07c0000
07c07c0000
0f80f80000
0f80f80000
0f80f80000
1f01f00000
07ffc00000
07ffc00000
0fff800000
0fff800000
0000000000
0000000000
0000000000
0000000000
0000000000
0000000000
0000000000
0000000000
ENDCHAR
STARTCHAR U+00D3
ENCODING 211
SWIDTH 1000 0
DWIDTH 20 0
BBX 33 40 -6 -8
BITMAP
00003f8000
00003f8000
00003f8000
00007f0000
0007f00000
0007f00000
000fe00000
000fe00000
000fff8000
001fff0000
001fff0000
001fff0000
00f80f8000
00f80f8000
00f80f8000
01f01f0000
01f01f0000
01f01f0000
03e03e0000
03e03e0000
03e03e0000
07c07c0000
07c07c0000
07c07c0000
0f80f80000
0f80f80000
0f80f80000
1f01f00000
07ffc00000
07ffc00000
0fff800000
0fff800000
0000000000
0000000000
0000000000
0000000000
0000000000
0000000000
0000000000
0000000000
ENDCHAR
STARTCHAR U+00D2
ENCODING 210
SWIDTH 1000 0
DWIDTH 20 0
BBX 33 40 -6 -8
BITMAP
0000fe0000
0000fe0000
0000fe0000
0001fc0000
00001fc000
00001fc000
00003f8000
00003f8000
000fff8000
001fff0000
001fff0000
001fff0000
00f80f8000
00f80f8000
00f80f8000
01f01f0000
01f01f0000
01f01f0000
03e03e0000
03e03e0000
03e03e0000
07c07c0000
07c07c0000
07c07c0000
0f80f80000
0f80f80000
0f80f80000
1f01f00000
07ffc00000
07ffc00000
0fff800000
0fff800000
0000000000
0000000000
0000000000
0000000000
0000000000
0000000000
0000000000
0000000000
ENDCHAR
STARTCHAR U+00D1
ENCODING 209
SWIDTH 1000 0
DWIDTH 20 0
BBX 33 40 -6 -8
BITMAP
0000fef800
0000fef800
0000fef800
0001fdf000
0007dfc000
0007dfc000
000fbf8000
000fbf8000
003f83e000
007f07c000
007f07c000
007f07c000
00ff8f8000
00ff8f8000
00ff8f8000
01ff1f0000
01f7df0000
01f7df0000
03efbe0000
03efbe0000
03e3fe0000
07c7fc0000
07c7fc0000
07c7fc0000
0f83f80000
0f83f80000
0f83f80000
1f07f00000
1f01f00000
1f01f00000
3e03e00000
3e03e00000
0000000000
0000000000
0000000000
0000000000
0000000000
0000000000
0000000000
0000000000
ENDCHAR
STARTCHAR U+00D0
ENCODING 208
SWIDTH 1000 0
DWIDTH 20 0
BBX 33 40 -6 -8
BITMAP
0000000000
0000000000
0000000000
0000000000
001fff0000
001fff0000
003ffe0000
003ffe0000
000f8f8000
001f1f0000
001f1f0000
001f1f0000
003e0f8000
003e0f8000
003e0f8000
007c1f0000
01ffdf0000
01ffdf0000
03ffbe0000
03ffbe0000
00f83e0000
01f07c0000
01f07c0000
01f07c0000
03e3e00000
03e3e00000
03e3e00000
07c7c00000
1fff000000
1fff000000
3ffe000000
3ffe000000
0000000000
0000000000
0000000000
0000000000
0000000000
0000000000
0000000000
0000000000
ENDCHAR
STARTCHAR U+00CF
ENCODING 207
SWIDTH 1000 0
DWIDTH 20 0
BBX 33 40 -6 -8
BITMAP
0003e3e000
0003e3e000
0003e3e000
0007c7c000
0000000000
0000000000
0000000000
0000000000
000fff8000
001fff0000
001fff0000
001fff0000
0003e00000
0003e00000
0003e00000
0007c00000
0007c00000
0007c00000
000f800000
000f800000
000f800000
001f000000
001f000000
001f000000
003e000000
003e000000
003e000000
007c000000
07ffc00000
07ffc00000
0fff800000
0fff800000
0000000000
0000000000
0000000000
0000000000
0000000000
0000000000
0000000000
0000000000
ENDCHAR
STARTCHAR U+00CE
ENCODING 206
SWIDTH 1000 0
DWIDTH 20 0
BBX 33 40 -6 -8
BITMAP
0000ff8000
0000ff8000
0000ff8000
0001ff0000
0007c7c000
0007c7c000
000f8f8000
000f8f8000
000fff8000
001fff0000
001fff0000
001fff0000
0003e00000
0003e00000
0003e00000
0007c00000
0007c00000
0007c00000
000f800000
000f800000
000f800000
001f000000
001f000000
001f000000
003e000000
003e000000
003e000000
007c000000
07ffc00000
07ffc00000
0fff800000
0fff800000
0000000000
0000000000
0000000000
0000000000
0000000000
0000000000
0000000000
0000000000
ENDCHAR
STARTCHAR U+00CD
ENCODING 205
SWIDTH 1000 0
DWIDTH 20 0
BBX 33 40 -6 -8
BITMAP
00003f8000
00003f8000
00003f8000
00007f0000
0007f00000
0007f00000
000fe00000
000fe00000
000fff8000
001fff0000
001fff0000
001fff0000
0003e00000
0003e00000
0003e00000
0007c00000
0007c00000
0007c00000
000f800000
000f800000
000f800000
001f000000
001f000000
001f000000
003e000000
003e000000
003e000000
007c000000
07ffc00000
07ffc00000
0fff800000
0fff800000
0000000000
0000000000
0000000000
0000000000
0000000000
0000000000
0000000000
0000000000
ENDCHAR
STARTCHAR U+00CC
ENCODING 204
SWIDTH 1000 0
DWIDTH 20 0
BBX 33 40 -6 -8
BITMAP
0000fe0000
0000fe0000
0000fe0000
0001fc0000
00001fc000
00001fc000
00003f8000
00003f8000
000fff8000
001fff0000
001fff0000
001fff0000
0003e00000
0003e00000
0003e00000
0007c00000
0007c00000
0007c00000
000f800000
000f800000
000f800000
001f000000
001f000000
001f000000
003e000000
003e000000
003e000000
007c000000
07ffc00000
07ffc00000
0fff800000
0fff800000
0000000000
0000000000
0000000000
0000000000
0000000000
0000000000
0000000000
0000000000
ENDCHAR
STARTCHAR U+00CB
ENCODING 203
SWIDTH 1000 0
DWIDTH 20 0
BBX 33 40 -6 -8
BITMAP
0003e3e000
0003e3e000
0003e3e000
0007c7c000
0000000000
0000000000
0000000000
0000000000
003fffe000
007fffc000
007fffc000
007fffc000
00f8000000
00f8000000
00f8000000
01f0000000
01fff00000
01fff00000
03ffe00000
03ffe00000
03e0000000
07c0000000
07c0000000
07c0000000
0f80000000
0f80000000
0f80000000
1f00000000
1ffff00000
1ffff00000
3fffe00000
3fffe00000
0000000000
0000000000
0000000000
0000000000
0000000000
0000000000
0000000000
0000000000
ENDCHAR
STARTCHAR U+00CA
ENCODING 202
SWIDTH 1000 0
DWIDTH 20 0
BBX 33 40 -6 -8
BITMAP
0000ff8000
0000ff8000
0000ff8000
0001ff0000
0007c7c000
0007c7c000
000f8f8000
000f8f8000
003fffe000
007fffc000
007fffc000
007fffc000
00f8000000
00f8000000
00f8000000
01f0000000
01ffc00000
01ffc00000
03ff800000
03ff800000
03e0000000
07c0000000
07c0000000
07c0000000
0f80000000
0f80000000
0f80000000
1f00000000
1ffff00000
1ffff00000
3fffe00000
3fffe00000
0000000000
0000000000
0000000000
0000000000
0000000000
0000000000
0000000000
0000000000
ENDCHAR
STARTCHAR U+00C9
ENCODING 201
SWIDTH 1000 0
DWIDTH 20 0
BBX 33 40 -6 -8
BITMAP
00000fe000
00000fe000
00000fe000
00001fc000
0001fc0000
0001fc0000
0003f80000
0003f80000
003fffe000
007fffc000
007fffc000
007fffc000
00f8000000
00f8000000
00f8000000
01f0000000
01fff00000
01fff00000
03ffe00000
03ffe00000
03e0000000
07c0000000
07c0000000
07c0000000
0f80000000
0f80000000
0f80000000
1f00000000
1ffff00000
1ffff00000
3fffe00000
3fffe00000
0000000000
0000000000
0000000000
0000000000
0000000000
0000000000
0000000000
0000000000
ENDCHAR
STARTCHAR U+00C8
ENCODING 200
SWIDTH 1000 0
DWIDTH 20 0
BBX 33 40 -6 -8
BITMAP
0003f80000
0003f80000
0003f80000
0007f00000
00007f0000
00007f0000
0000fe0000
0000fe0000
003fffe000
007fffc000
007fffc000
007fffc000
00f8000000
00f8000000
00f8000000
01f0000000
01fff00000
01fff00000
03ffe00000
03ffe00000
03e0000000
07c0000000
07c0000000
07c0000000
0f80000000
0f80000000
0f80000000
1f00000000
1ffff00000
1ffff00000
3fffe00000
3fffe00000
0000000000
0000000000
0000000000
0000000000
0000000000
0000000000
0000000000
0000000000
ENDCHAR
STARTCHAR U+00C7
ENCODING 199
SWIDTH 1000 0
DWIDTH 20 0
BBX 33 40 -6 -8
BITMAP
0000000000
0000000000
0000000000
0000000000
0001ffc000
0001ffc000
0003ff8000
0003ff8000
000f83e000
001f07c000
001f07c000
001f07c000
00f8000000
00f8000000
00f8000000
01f0000000
01f0000000
01f0000000
03e0000000
03e0000000
03e0000000
07c0000000
07c0000000
07c0000000
03e0f80000
03e0f80000
03e0f80000
07c1f00000
01ffc00000
01ffc00000
03ff800000
03ff800000
003e000000
007c000000
007c000000
007c000000
0ff8000000
0ff8000000
0ff8000000
1ff0000000
ENDCHAR
STARTCHAR U+00C6
ENCODING 198
SWIDTH 1000 0
DWIDTH 20 0
BBX 33 40 -6 -8
BITMAP
0000000000
0000000000
0000000000
0000000000
0001fff000
0001fff000
0003ffe000
0003ffe000
000ff80000
001ff00000
001ff00000
001ff00000
00fbe00000
00fbe00000
00fbe00000
01f7c00000
01f7fc0000
01f7fc0000
03eff80000
03eff80000
03ff800000
07ff000000
07ff000000
07ff000000
0fbe000000
0fbe000000
0fbe000000
1f7c000000
1f7ff00000
1f7ff00000
3effe00000
3effe00000
0000000000
0000000000
0000000000
0000000000
0000000000
0000000000
0000000000
0000000000
ENDCHAR
STARTCHAR U+00C5
ENCODING 197
SWIDTH 1000 0
DWIDTH 20 0
BBX 33 40 -6 -8
BITMAP
0000ff8000
0000ff8000
0000ff8000
0001ff0000
0007c7c000
0007c7c000
000f8f8000
000f8f8000
0003fe0000
0007fc0000
0007fc0000
0007fc0000
000ff80000
000ff80000
000ff80000
001ff00000
007c7c0000
007c7c0000
00f8f80000
00f8f80000
03fffe0000
07fffc0000
07fffc0000
07fffc0000
0f80f80000
0f80f80000
0f80f80000
1f01f00000
1f01f00000
1f01f00000
3e03e00000
3e03e00000
0000000000
0000000000
0000000000
0000000000
0000000000
0000000000
0000000000
0000000000
ENDCHAR
STARTCHAR U+00C4
ENCODING 196
SWIDTH 1000 0
DWIDTH 20 0
BBX 33 40 -6 -8
BITMAP
0003e3e000
0003e3e000
0003e3e000
0007c7c000
0000000000
0000000000
0000000000
0000000000
0000f80000
0001f00000
0001f00000
0001f00000
000ff80000
000ff80000
000ff80000
001ff00000
007c7c0000
007c7c0000
00f8f80000
00f8f80000
03fffe0000
07fffc0000
07fffc0000
07fffc0000
0f80f80000
0f80f80000
0f80f80000
1f01f00000
1f01f00000
1f01f00000
3e03e00000
3e03e00000
0000000000
0000000000
0000000000
0000000000
0000000000
0000000000
0000000000
0000000000
ENDCHAR
STARTCHAR U+00C3
ENCODING 195
SWIDTH 1000 0
DWIDTH 20 0
BBX 33 40 -6 -8
BITMAP
0000fef800
0000fef800
0000fef800
0001fdf000
0007dfc000
0007dfc000
000fbf8000
000fbf8000
0001b80000
0001f00000
0001f00000
0001f00000
000ff80000
000ff80000
000ff80000
001ff00000
007c7c0000
007c7c0000
00f8f80000
00f8f80000
03fffe0000
07fffc0000
07fffc0000
07fffc0000
0f80f80000
0f80f80000
0f80f80000
1f01f00000
1f01f00000
1f01f00000
3e03e00000
3e03e00000
0000000000
0000000000
0000000000
0000000000
0000000000
0000000000
0000000000
0000000000
ENDCHAR
STARTCHAR U+00C2
ENCODING 194
SWIDTH 1000 0
DWIDTH 20 0
BBX 33 40 -6 -8
BITMAP
0000ff8000
0000ff8000
0000ff8000
0001ff0000
0007c7c000
0007c7c000
000f8f8000
000f8f8000
0001b80000
0001f00000
0001f00000
0001f00000
000ff80000
000ff80000
000ff80000
001ff00000
007c7c0000
007c7c0000
00f8f80000
00f8f80000
03fffe0000
07fffc0000
07fffc0000
07fffc0000
0f80f80000
0f80f80000
0f80f80000
1f01f00000
1f01f00000
1f01f00000
3e03e00000
3e03e00000
0000000000
0000000000
0000000000
0000000000
0000000000
0000000000
0000000000
0000000000
ENDCHAR
STARTCHAR U+00C1
ENCODING 193
SWIDTH 1000 0
DWIDTH 20 0
BBX 33 40 -6 -8
BITMAP
00003f8000
00003f8000
00003f8000
00007f0000
0007f00000
0007f00000
000fe00000
000fe00000
0000f80000
0001f00000
0001f00000
0001f00000
000ff80000
000ff80000
000ff80000
001ff00000
007c7c0000
007c7c0000
00f8f80000
00f8f80000
03fffe0000
07fffc0000
07fffc0000
07fffc0000
0f80f80000
0f80f80000
0f80f80000
1f01f00000
1f01f00000
1f01f00000
3e03e00000
3e03e00000
0000000000
0000000000
0000000000
0000000000
0000000000
0000000000
0000000000
0000000000
ENDCHAR
STARTCHAR U+00C0
ENCODING 192
SWIDTH 1000 0
DWIDTH 20 0
BBX 33 40 -6 -8
BITMAP
0000fe0000
0000fe0000
0000fe0000
0001fc0000
00001fc000
00001fc000
00003f8000
00003f8000
0000f80000
0001f00000
0001f00000
0001f00000
000ff80000
000ff80000
000ff80000
001ff00000
007c7c0000
007c7c0000
00f8f80000
00f8f80000
03fffe0000
07fffc0000
07fffc0000
07fffc0000
0f80f80000
0f80f80000
0f80f80000
1f01f00000
1f01f00000
1f01f00000
3e03e00000
3e03e00000
0000000000
0000000000
0000000000
0000000000
0000000000
0000000000
0000000000
0000000000
ENDCHAR
STARTCHAR U+00BF
ENCODING 191
SWIDTH 1000 0
DWIDTH 20 0
BBX 33 40 -6 -8
BITMAP
0000000000
0000000000
0000000000
0000000000
00007c0000
00007c0000
0000f80000
0000f80000
0000000000
0000000000
0000000000
0000000000
0003e00000
0003e00000
0003e00000
0007c00000
0007c00000
0007c00000
000f800000
000f800000
00fe000000
01fc000000
01fc000000
01fc000000
0f80f80000
0f80f80000
0f80f80000
1f01f00000
07ffc00000
07ffc00000
0fff800000
0fff800000
0000000000
0000000000
0000000000
0000000000
0000000000
0000000000
0000000000
0000000000
ENDCHAR
STARTCHAR U+00BE
ENCODING 190
SWIDTH 1000 0
DWIDTH 20 0
BBX 33 40 -6 -8
BITMAP
000ffe0000
000ffe0000
000ffe0000
001ffc0000
00007c0000
00007c0000
0000f80000
0000f80000
000feb8000
001fdf0000
001fdf0000
001fdf0000
0003f80000
0003f80000
0003f80000
0007f00000
01ffc00000
01ffc00000
03ff800000
03ff800000
003eb80000
007df00000
007df00000
007df00000
03efe00000
03efe00000
03efe00000
07afc00000
1f7fc00000
1f7fc00000
3eff800000
3eff800000
06ffe00000
07ffc00000
07ffc00000
07ffc00000
003e000000
003e000000
003e000000
007c000000
ENDCHAR
STARTCHAR U+00BD
ENCODING 189
SWIDTH 1000 0
DWIDTH 20 0
BBX 33 40 -6 -8
BITMAP
0000000000
0000000000
0000000000
0000000000
0007c00000
0007c00000
000f800000
000f800000
003f8f8000
007f1f0000
007f1f0000
007f1f0000
003ef80000
003ef80000
003ef80000
007df00000
007fc00000
007fc00000
00ff800000
00ff800000
003ff80000
007ff00000
007ff00000
007ff00000
03fef80000
03fef80000
03fef80000
07faf00000
1f07c00000
1f07c00000
3e0f800000
3e0f800000
003e000000
007c000000
007c000000
007c000000
03ff800000
03ff800000
03ff800000
07ff000000
ENDCHAR
STARTCHAR U+00BC
ENCODING 188
SWIDTH 1000 0
DWIDTH 20 0
BBX 33 40 -6 -8
BITMAP
0000000000
0000000000
0000000000
0000000000
0007c00000
0007c00000
000f800000
000f800000
003f8f8000
007f1f0000
007f1f0000
007f1f0000
003ef80000
003ef80000
003ef80000
007df00000
007fc00000
007fc00000
00ff800000
00ff800000
003eb80000
007df00000
007df00000
007df00000
03efe00000
03efe00000
03efe00000
07afc00000
1f7fc00000
1f7fc00000
3eff800000
3eff800000
06ffe00000
07ffc00000
07ffc00000
07ffc00000
003e000000
003e000000
003e000000
007c000000
ENDCHAR
STARTCHAR U+00BB
ENCODING 187
SWIDTH 1000 0
DWIDTH 20 0
BBX 33 40 -6 -8
BITMAP
0000000000
0000000000
0000000000
0000000000
001f7c0000
001f7c0000
003ef80000
003ef80000
000fbe0000
001f7c0000
001f7c0000
001f7c0000
000fbe0000
000fbe0000
000fae0000
001f7c0000
0007df0000
0007df0000
000fbe0000
000fbe0000
003eb80000
007df00000
007df00000
007df00000
03ef800000
03ef800000
03ef800000
07af000000
1f7c000000
1f7c000000
3ef8000000
3ef8000000
0000000000
0000000000
0000000000
0000000000
0000000000
0000000000
0000000000
0000000000
ENDCHAR
STARTCHAR U+00BA
ENCODING 186
SWIDTH 1000 0
DWIDTH 20 0
BBX 33 40 -6 -8
BITMAP
0000000000
0000000000
0000000000
0000000000
0007ffc000
0007ffc000
000fff8000
000fff8000
003e03e000
007c07c000
007c07c000
007c07c000
00f80f8000
00f80f8000
00f80f8000
01f01f0000
01f01f0000
01f01f0000
03e03e0000
03e03e0000
00fff80000
01fff00000
01fff00000
01fff00000
0000000000
0000000000
0000000000
0000000000
1ffff00000
1ffff00000
3fffe00000
3fffe00000
0000000000
0000000000
0000000000
0000000000
0000000000
0000000000
0000000000
0000000000
ENDCHAR
STARTCHAR U+00B9
ENCODING 185
SWIDTH 1000 0
DWIDTH 20 0
BBX 33 40 -6 -8
BITMAP
00003e0000
00003e0000
00003e0000
00007c0000
0001fc0000
0001fc0000
0003f80000
0003f80000
0000f80000
0001f00000
0001f00000
0001f00000
0003e00000
0003e00000
0003e00000
0007c00000
001ff00000
001ff00000
003fe00000
003fe00000
0000000000
0000000000
0000000000
0000000000
0000000000
0000000000
0000000000
0000000000
0000000000
0000000000
0000000000
0000000000
0000000000
0000000000
0000000000
0000000000
0000000000
0000000000
0000000000
0000000000
ENDCHAR
STARTCHAR U+00B8
ENCODING 184
SWIDTH 1000 0
DWIDTH 20 0
BBX 33 40 -6 -8
BITMAP
0000000000
0000000000
0000000000
0000000000
0000000000
0000000000
0000000000
0000000000
0000000000
0000000000
0000000000
0000000000
0000000000
0000000000
0000000000
0000000000
0000000000
0000000000
0000000000
0000000000
0000000000
0000000000
0000000000
0000000000
0000000000
0000000000
0000000000
0000000000
0000000000
0000000000
0000000000
0000000000
003e000000
007c000000
007c000000
007c000000
0ff8000000
0ff8000000
0ff8000000
1ff0000000
ENDCHAR
STARTCHAR U+2022
ENCODING 8226
SWIDTH 1000 0
DWIDTH 20 0
BBX 33 40 -6 -8
BITMAP
0000000000
0000000000
0000000000
0000000000
0000000000
0000000000
0000000000
0000000000
0000000000
0000000000
0000000000
0000000000
000fe00000
000fe00000
000fe00000
001fc00000
001fc00000
001fc00000
003f800000
003f800000
0000000000
0000000000
0000000000
0000000000
0000000000
0000000000
0000000000
0000000000
0000000000
0000000000
0000000000
0000000000
0000000000
0000000000
0000000000
0000000000
0000000000
0000000000
0000000000
0000000000
ENDCHAR
STARTCHAR U+00B6
ENCODING 182
SWIDTH 1000 0
DWIDTH 20 0
BBX 33 40 -6 -8
BITMAP
0000000000
0000000000
0000000000
0000000000
0007fff000
0007fff000
000fffe000
000fffe000
003fbfe000
007f7fc000
007f7fc000
007f7fc000
00feff8000
00feff8000
00feff8000
01fdff0000
007fff0000
007fff0000
00fffe0000
00fffe0000
0003fe0000
0007fc0000
0007fc0000
0007fc0000
000ff80000
000ff80000
000ff80000
001ff00000
001ff00000
001ff00000
003fe00000
003fe00000
0000000000
0000000000
0000000000
0000000000
0000000000
0000000000
0000000000
0000000000
ENDCHAR
STARTCHAR U+00B5
ENCODING 181
SWIDTH 1000 0
DWIDTH 20 0
BBX 33 40 -6 -8
BITMAP
0000000000
0000000000
0000000000
0000000000
0000000000
0000000000
0000000000
0000000000
0000000000
0000000000
0000000000
0000000000
003e0f8000
003e0f8000
003e0f8000
007c1f0000
007c1f0000
007c1f0000
00f83e0000
00f83e0000
00f83e0000
01f07c0000
01f07c0000
01f07c0000
03fbf80000
03fbf80000
03fbf80000
07f7f00000
07fff00000
07fff00000
0fffe00000
0fffe00000
0f80000000
1f00000000
1f00000000
1f00000000
f800000000
f800000000
f800000000
f000000000
ENDCHAR
STARTCHAR U+00B4
ENCODING 180
SWIDTH 1000 0
DWIDTH 20 0
BBX 33 40 -6 -8
BITMAP
0000000000
0000000000
0000000000
0000000000
00001fc000
00001fc000
00003f8000
00003f8000
00003e0000
00007c0000
00007c0000
00007c0000
0003e00000
0003e00000
0003e00000
0007c00000
0000000000
0000000000
0000000000
0000000000
0000000000
0000000000
0000000000
0000000000
0000000000
0000000000
0000000000
0000000000
0000000000
0000000000
0000000000
0000000000
0000000000
0000000000
0000000000
0000000000
0000000000
0000000000
0000000000
0000000000
ENDCHAR
STARTCHAR U+00B3
ENCODING 179
SWIDTH 1000 0
DWIDTH 20 0
BBX 33 40 -6 -8
BITMAP
0003ffe000
0003ffe000
0003ffe000
0007ffc000
000007c000
000007c000
00000f8000
00000f8000
0000fe0000
0001fc0000
0001fc0000
0001fc0000
00003e0000
00003e0000
00003e0000
00007c0000
007ff00000
007ff00000
00ffe00000
00ffe00000
0000000000
0000000000
0000000000
0000000000
0000000000
0000000000
0000000000
0000000000
0000000000
0000000000
0000000000
0000000000
0000000000
0000000000
0000000000
0000000000
0000000000
0000000000
0000000000
0000000000
ENDCHAR
STARTCHAR U+00B2
ENCODING 178
SWIDTH 1000 0
DWIDTH 20 0
BBX 33 40 -6 -8
BITMAP
0000ff8000
0000ff8000
0000ff8000
0001ff0000
0007c7c000
0007c7c000
000f8f8000
000f8f8000
0001be0000
0001fc0000
0001fc0000
0001fc0000
000f800000
000f800000
000f800000
001f000000
007ffc0000
007ffc0000
00fff80000
00fff80000
0000000000
0000000000
0000000000
0000000000
0000000000
0000000000
0000000000
0000000000
0000000000
0000000000
0000000000
0000000000
0000000000
0000000000
0000000000
0000000000
0000000000
0000000000
0000000000
0000000000
ENDCHAR
STARTCHAR U+00AF
ENCODING 175
SWIDTH 1000 0
DWIDTH 20 0
BBX 33 40 -6 -8
BITMAP
0003ffe000
0003ffe000
0003ffe000
0007ffc000
0000000000
0000000000
0000000000
0000000000
0000000000
0000000000
0000000000
0000000000
0000000000
0000000000
0000000000
0000000000
0000000000
0000000000
0000000000
0000000000
0000000000
0000000000
0000000000
0000000000
0000000000
0000000000
0000000000
0000000000
0000000000
0000000000
0000000000
0000000000
0000000000
0000000000
0000000000
0000000000
0000000000
0000000000
0000000000
0000000000
ENDCHAR
STARTCHAR U+00AE
ENCODING 174
SWIDTH 1000 0
DWIDTH 20 0
BBX 33 40 -6 -8
BITMAP
0000000000
0000000000
0000000000
0000000000
0001ff0000
0001ff0000
0003fe0000
0003fe0000
000f8f8000
001f1f0000
001f1f0000
001f1f0000
00ffff8000
00ffff8000
00ffff8000
01ffff0000
01ff7f0000
01ff7f0000
03fefe0000
03fefe0000
03fffe0000
07fffc0000
07fffc0000
07fffc0000
0ffef80000
0ffef80000
0ffef80000
1ffdf00000
07ffc00000
07ffc00000
0fff800000
0fff800000
03fe000000
07fc000000
07fc000000
07fc000000
0000000000
0000000000
0000000000
0000000000
ENDCHAR
STARTCHAR U+00D7
ENCODING 215
SWIDTH 1000 0
DWIDTH 20 0
BBX 33 40 -6 -8
BITMAP
0000000000
0000000000
0000000000
0000000000
0000000000
0000000000
0000000000
0000000000
000f8f8000
001f1f0000
001f1f0000
001f1f0000
000ff80000
000ff80000
000ff80000
001ff00000
0007c00000
0007c00000
000f800000
000f800000
003fe00000
007fc00000
007fc00000
007fc00000
03e3e00000
03e3e00000
03e3e00000
07c7c00000
0000000000
0000000000
0000000000
0000000000
0000000000
0000000000
0000000000
0000000000
0000000000
0000000000
0000000000
0000000000
ENDCHAR
STARTCHAR U+00AC
ENCODING 172
SWIDTH 1000 0
DWIDTH 20 0
BBX 33 40 -6 -8
BITMAP
0000000000
0000000000
0000000000
0000000000
0000000000
0000000000
0000000000
0000000000
0000000000
0000000000
0000000000
0000000000
0000000000
0000000000
0000000000
0000000000
0000000000
0000000000
0000000000
0000000000
03fffe0000
07fffc0000
07fffc0000
07fffc0000
0000f80000
0000f80000
0000f80000
0001f00000
0001f00000
0001f00000
0003e00000
0003e00000
0000000000
0000000000
0000000000
0000000000
0000000000
0000000000
0000000000
0000000000
ENDCHAR
STARTCHAR U+00AB
ENCODING 171
SWIDTH 1000 0
DWIDTH 20 0
BBX 33 40 -6 -8
BITMAP
0000000000
0000000000
0000000000
0000000000
00007df000
00007df000
0000fbe000
0000fbe000
0003eb8000
0007df0000
0007df0000
0007df0000
003ef80000
003ef80000
003ef80000
007af00000
01f7c00000
01f7c00000
03ef800000
03ef800000
00fbe00000
01f7c00000
01f7c00000
01f7c00000
00fbe00000
00fbe00000
00fae00000
01f7c00000
007df00000
007df00000
00fbe00000
00fbe00000
0000000000
0000000000
0000000000
0000000000
0000000000
0000000000
0000000000
0000000000
ENDCHAR
STARTCHAR U+00AA
ENCODING 170
SWIDTH 1000 0
DWIDTH 20 0
BBX 33 40 -6 -8
BITMAP
0000000000
0000000000
0000000000
0000000000
0007ffc000
0007ffc000
000fff8000
000fff8000
000003e000
000007c000
000007c000
000007c000
003fff8000
003fff8000
003fff8000
007fff0000
01f07f0000
01f07f0000
03e0fe0000
03e0fe0000
00fffe0000
01fffc0000
01fffc0000
01fffc0000
0000000000
0000000000
0000000000
0000000000
1ffff00000
1ffff00000
3fffe00000
3fffe00000
0000000000
0000000000
0000000000
0000000000
0000000000
0000000000
0000000000
0000000000
ENDCHAR
STARTCHAR U+00A9
ENCODING 169
SWIDTH 1000 0
DWIDTH 20 0
BBX 33 40 -6 -8
BITMAP
0000000000
0000000000
0000000000
0000000000
0001ff0000
0001ff0000
0003fe0000
0003fe0000
000f8f8000
001f1f0000
001f1f0000
001f1f0000
00fbff8000
00fbff8000
00fbff8000
01f7ff0000
01ff1f0000
01ff1f0000
03fe3e0000
03fe3e0000
03fe3e0000
07fc7c0000
07fc7c0000
07fc7c0000
0fbff80000
0fbff80000
0faff80000
1f7ff00000
07c7c00000
07c7c00000
0f8f800000
0f8f800000
03fe000000
07fc000000
07fc000000
07fc000000
0000000000
0000000000
0000000000
0000000000
ENDCHAR
STARTCHAR U+00A4
ENCODING 164
SWIDTH 1000 0
DWIDTH 20 0
BBX 33 40 -6 -8
BITMAP
0000000000
0000000000
0000000000
0000000000
0000000000
0000000000
0000000000
0000000000
003e03e000
007c07c000
007c07c000
007c07c000
003ffe0000
003ffe0000
003ffe0000
007ffc0000
007c7c0000
007c7c0000
00f8f80000
00f8f80000
00fff80000
01fff00000
01fff00000
01fff00000
0f80f80000
0f80f80000
0f80f80000
1f01f00000
0000000000
0000000000
0000000000
0000000000
0000000000
0000000000
0000000000
0000000000
0000000000
0000000000
0000000000
0000000000
ENDCHAR
STARTCHAR U+00A7
ENCODING 167
SWIDTH 1000 0
DWIDTH 20 0
BBX 33 40 -6 -8
BITMAP
0000000000
0000000000
0000000000
0000000000
0001ffc000
0001ffc000
0003ff8000
0003ff8000
000f800000
001f000000
001f000000
001f000000
000ff80000
000ff80000
000ff80000
001ff00000
007c7c0000
007c7c0000
00f8f80000
00f8f80000
003fe00000
007fc00000
007fc00000
007fc00000
0003e00000
0003e00000
0003e00000
0007c00000
07ff000000
07ff000000
0ffe000000
0ffe000000
0000000000
0000000000
0000000000
0000000000
0000000000
0000000000
0000000000
0000000000
ENDCHAR
STARTCHAR U+00A6
ENCODING 166
SWIDTH 1000 0
DWIDTH 20 0
BBX 33 40 -6 -8
BITMAP
0000000000
0000000000
0000000000
0000000000
00007c0000
00007c0000
0000f80000
0000f80000
0000f80000
0001f00000
0001f00000
0001f00000
0003e00000
0003e00000
0003e00000
0007c00000
0000000000
0000000000
0000000000
0000000000
000f800000
001f000000
001f000000
001f000000
003e000000
003e000000
003e000000
007c000000
007c000000
007c000000
00f8000000
00f8000000
0000000000
0000000000
0000000000
0000000000
0000000000
0000000000
0000000000
0000000000
ENDCHAR
STARTCHAR U+00A5
ENCODING 165
SWIDTH 1000 0
DWIDTH 20 0
BBX 33 40 -6 -8
BITMAP
0000000000
0000000000
0000000000
0000000000
001f01f000
001f01f000
003e03e000
003e03e000
000f8f8000
001f1f0000
001f1f0000
001f1f0000
000ff80000
000ff80000
000ff80000
001ff00000
0007c00000
0007c00000
000f800000
000f800000
03fffe0000
07fffc0000
07fffc0000
07fffc0000
003e000000
003e000000
003e000000
007c000000
007c000000
007c000000
00f8000000
00f8000000
0000000000
0000000000
0000000000
0000000000
0000000000
0000000000
0000000000
0000000000
ENDCHAR
STARTCHAR U+00A8
ENCODING 168
SWIDTH 1000 0
DWIDTH 20 0
BBX 33 40 -6 -8
BITMAP
0003e3e000
0003e3e000
0003e3e000
0007c7c000
0000000000
0000000000
0000000000
0000000000
0000000000
0000000000
0000000000
0000000000
0000000000
0000000000
0000000000
0000000000
0000000000
0000000000
0000000000
0000000000
0000000000
0000000000
0000000000
0000000000
0000000000
0000000000
0000000000
0000000000
0000000000
0000000000
0000000000
0000000000
0000000000
0000000000
0000000000
0000000000
0000000000
0000000000
0000000000
0000000000
ENDCHAR
STARTCHAR U+00A2
ENCODING 162
SWIDTH 1000 0
DWIDTH 20 0
BBX 33 40 -6 -8
BITMAP
0000000000
0000000000
0000000000
0000000000
0000000000
0000000000
0000000000
0000000000
0000f80000
0001f00000
0001f00000
0001f00000
003ffe0000
003ffe0000
003ffe0000
007ffc0000
01f7df0000
01f7df0000
03efbe0000
03efbe0000
03ef800000
07df000000
07df000000
07df000000
0fbef80000
0fbef80000
0fbef80000
1f7df00000
07ffc00000
07ffc00000
0fff800000
0fff800000
00f8000000
01f0000000
01f0000000
01f0000000
0000000000
0000000000
0000000000
0000000000
ENDCHAR
STARTCHAR U+00A1
ENCODING 161
SWIDTH 1000 0
DWIDTH 20 0
BBX 33 40 -6 -8
BITMAP
0000000000
0000000000
0000000000
0000000000
00007c0000
00007c0000
0000f80000
0000f80000
0000000000
0000000000
0000000000
0000000000
0003e00000
0003e00000
0003e00000
0007c00000
0007c00000
0007c00000
000f800000
000f800000
000f800000
001f000000
001f000000
001f000000
003e000000
003e000000
003e000000
007c000000
007c000000
007c000000
00f8000000
00f8000000
0000000000
0000000000
0000000000
0000000000
0000000000
0000000000
0000000000
0000000000
ENDCHAR
STARTCHAR U+201F
ENCODING 8223
SWIDTH 1000 0
DWIDTH 20 0
BBX 33 40 -6 -8
BITMAP
0000000000
0000000000
0000000000
0000000000
0007ffc000
0007ffc000
000fff8000
000fff8000
000fbe0000
001f7c0000
001f7c0000
001f7c0000
000fbe0000
000fbe0000
000fbe0000
001f7c0000
0000000000
0000000000
0000000000
0000000000
0000000000
0000000000
0000000000
0000000000
0000000000
0000000000
0000000000
0000000000
0000000000
0000000000
0000000000
0000000000
0000000000
0000000000
0000000000
0000000000
0000000000
0000000000
0000000000
0000000000
ENDCHAR
STARTCHAR U+201E
ENCODING 8222
SWIDTH 1000 0
DWIDTH 20 0
BBX 33 40 -6 -8
BITMAP
0000000000
0000000000
0000000000
0000000000
0000000000
0000000000
0000000000
0000000000
0000000000
0000000000
0000000000
0000000000
0000000000
0000000000
0000000000
0000000000
0000000000
0000000000
0000000000
0000000000
0000000000
0000000000
0000000000
0000000000
0000000000
0000000000
0000000000
0000000000
07df000000
07df000000
0fbe000000
0fbe000000
0fbe000000
1f7c000000
1f7c000000
1f7c000000
0000000000
0000000000
0000000000
0000000000
ENDCHAR
STARTCHAR U+201D
ENCODING 8221
SWIDTH 1000 0
DWIDTH 20 0
BBX 33 40 -6 -8
BITMAP
0000000000
0000000000
0000000000
0000000000
0007f7f000
0007f7f000
000fefe000
000fefe000
0003e3e000
0007c7c000
0007c7c000
0007c7c000
003e3e0000
003e3e0000
003e3e0000
007c7c0000
0000000000
0000000000
0000000000
0000000000
0000000000
0000000000
0000000000
0000000000
0000000000
0000000000
0000000000
0000000000
0000000000
0000000000
0000000000
0000000000
0000000000
0000000000
0000000000
0000000000
0000000000
0000000000
0000000000
0000000000
ENDCHAR
STARTCHAR U+201C
ENCODING 8220
SWIDTH 1000 0
DWIDTH 20 0
BBX 33 40 -6 -8
BITMAP
0000000000
0000000000
0000000000
0000000000
0001f1f000
0001f1f000
0003e3e000
0003e3e000
000f8f8000
001f1f0000
001f1f0000
001f1f0000
003fbf8000
003fbf8000
003fbf8000
007f7f0000
0000000000
0000000000
0000000000
0000000000
0000000000
0000000000
0000000000
0000000000
0000000000
0000000000
0000000000
0000000000
0000000000
0000000000
0000000000
0000000000
0000000000
0000000000
0000000000
0000000000
0000000000
0000000000
0000000000
0000000000
ENDCHAR
STARTCHAR U+201B
ENCODING 8219
SWIDTH 1000 0
DWIDTH 20 0
BBX 33 40 -6 -8
BITMAP
0000000000
0000000000
0000000000
0000000000
00007c0000
00007c0000
0000f80000
0000f80000
0000f80000
0001f00000
0001f00000
0001f00000
0003e00000
0003e00000
0003e00000
0007c00000
0000000000
0000000000
0000000000
0000000000
0000000000
0000000000
0000000000
0000000000
0000000000
0000000000
0000000000
0000000000
0000000000
0000000000
0000000000
0000000000
0000000000
0000000000
0000000000
0000000000
0000000000
0000000000
0000000000
0000000000
ENDCHAR
STARTCHAR U+201A
ENCODING 8218
SWIDTH 1000 0
DWIDTH 20 0
BBX 33 40 -6 -8
BITMAP
0000000000
0000000000
0000000000
0000000000
0000000000
0000000000
0000000000
0000000000
0000000000
0000000000
0000000000
0000000000
0000000000
0000000000
0000000000
0000000000
0000000000
0000000000
0000000000
0000000000
000f800000
001f000000
001f000000
001f000000
003e000000
003e000000
003e000000
007c000000
007c000000
007c000000
00f8000000
00f8000000
0000000000
0000000000
0000000000
0000000000
0000000000
0000000000
0000000000
0000000000
ENDCHAR
STARTCHAR U+2019
ENCODING 8217
SWIDTH 1000 0
DWIDTH 20 0
BBX 33 40 -6 -8
BITMAP
0000000000
0000000000
0000000000
0000000000
0007f00000
0007f00000
000fe00000
000fe00000
0003e00000
0007c00000
0007c00000
0007c00000
003e000000
003e000000
003e000000
007c000000
0000000000
0000000000
0000000000
0000000000
0000000000
0000000000
0000000000
0000000000
0000000000
0000000000
0000000000
0000000000
0000000000
0000000000
0000000000
0000000000
0000000000
0000000000
0000000000
0000000000
0000000000
0000000000
0000000000
0000000000
ENDCHAR
STARTCHAR U+2018
ENCODING 8216
SWIDTH 1000 0
DWIDTH 20 0
BBX 33 40 -6 -8
BITMAP
0000000000
0000000000
0000000000
0000000000
000001f000
000001f000
000003e000
000003e000
00000f8000
00001f0000
00001f0000
00001f0000
00003f8000
00003f8000
00003f8000
00007f0000
0000000000
0000000000
0000000000
0000000000
0000000000
0000000000
0000000000
0000000000
0000000000
0000000000
0000000000
0000000000
0000000000
0000000000
0000000000
0000000000
0000000000
0000000000
0000000000
0000000000
0000000000
0000000000
0000000000
0000000000
ENDCHAR
STARTCHAR U+2017
ENCODING 8215
SWIDTH 1000 0
DWIDTH 20 0
BBX 33 40 -6 -8
BITMAP
0000000000
0000000000
0000000000
0000000000
0000000000
0000000000
0000000000
0000000000
0000000000
0000000000
0000000000
0000000000
0000000000
0000000000
0000000000
0000000000
0000000000
0000000000
0000000000
0000000000
0000000000
0000000000
0000000000
0000000000
0000000000
0000000000
0000000000
0000000000
1ffff00000
1ffff00000
3fffe00000
3fffe00000
0000000000
0000000000
0000000000
0000000000
ffff800000
ffff800000
ffff800000
ffff000000
ENDCHAR
STARTCHAR U+2016
ENCODING 8214
SWIDTH 1000 0
DWIDTH 20 0
BBX 33 40 -6 -8
BITMAP
0000000000
0000000000
0000000000
0000000000
00007fc000
00007fc000
0000ff8000
0000ff8000
0000ff8000
0001ff0000
0001ff0000
0001ff0000
0003fe0000
0003fe0000
0003fe0000
0007fc0000
0007fc0000
0007fc0000
000ff80000
000ff80000
000ff80000
001ff00000
001ff00000
001ff00000
003fe00000
003fe00000
003fe00000
007fc00000
007fc00000
007fc00000
00ff800000
00ff800000
0000000000
0000000000
0000000000
0000000000
0000000000
0000000000
0000000000
0000000000
ENDCHAR
STARTCHAR U+2015
ENCODING 8213
SWIDTH 1000 0
DWIDTH 20 0
BBX 33 40 -6 -8
BITMAP
0000000000
0000000000
0000000000
0000000000
0000000000
0000000000
0000000000
0000000000
0000000000
0000000000
0000000000
0000000000
0000000000
0000000000
0000000000
0000000000
01fffff000
01fffff000
03ffffe000
03ffffe000
0000000000
0000000000
0000000000
0000000000
0000000000
0000000000
0000000000
0000000000
0000000000
0000000000
0000000000
0000000000
0000000000
0000000000
0000000000
0000000000
0000000000
0000000000
0000000000
0000000000
ENDCHAR
STARTCHAR U+2014
ENCODING 8212
SWIDTH 1000 0
DWIDTH 20 0
BBX 33 40 -6 -8
BITMAP
0000000000
0000000000
0000000000
0000000000
0000000000
0000000000
0000000000
0000000000
0000000000
0000000000
0000000000
0000000000
0000000000
0000000000
0000000000
0000000000
01ffff0000
01ffff0000
03fffe0000
03fffe0000
0000000000
0000000000
0000000000
0000000000
0000000000
0000000000
0000000000
0000000000
0000000000
0000000000
0000000000
0000000000
0000000000
0000000000
0000000000
0000000000
0000000000
0000000000
0000000000
0000000000
ENDCHAR
STARTCHAR U+2013
ENCODING 8211
SWIDTH 1000 0
DWIDTH 20 0
BBX 33 40 -6 -8
BITMAP
0000000000
0000000000
0000000000
0000000000
0000000000
0000000000
0000000000
0000000000
0000000000
0000000000
0000000000
0000000000
0000000000
0000000000
0000000000
0000000000
001ffc0000
001ffc0000
003ff80000
003ff80000
0000000000
0000000000
0000000000
0000000000
0000000000
0000000000
0000000000
0000000000
0000000000
0000000000
0000000000
0000000000
0000000000
0000000000
0000000000
0000000000
0000000000
0000000000
0000000000
0000000000
ENDCHAR
STARTCHAR U+2012
ENCODING 8210
SWIDTH 1000 0
DWIDTH 20 0
BBX 33 40 -6 -8
BITMAP
0000000000
0000000000
0000000000
0000000000
0000000000
0000000000
0000000000
0000000000
0000000000
0000000000
0000000000
0000000000
0000000000
0000000000
0000000000
0000000000
007ffc0000
007ffc0000
00fff80000
00fff80000
0000000000
0000000000
0000000000
0000000000
0000000000
0000000000
0000000000
0000000000
0000000000
0000000000
0000000000
0000000000
0000000000
0000000000
0000000000
0000000000
0000000000
0000000000
0000000000
0000000000
ENDCHAR
STARTCHAR U+2011
ENCODING 8209
SWIDTH 1000 0
DWIDTH 20 0
BBX 33 40 -6 -8
BITMAP
0000000000
0000000000
0000000000
0000000000
0000000000
0000000000
0000000000
0000000000
0000000000
0000000000
0000000000
0000000000
0000000000
0000000000
0000000000
0000000000
001ff00000
001ff00000
003fe00000
003fe00000
0000000000
0000000000
0000000000
0000000000
0000000000
0000000000
0000000000
0000000000
0000000000
0000000000
0000000000
0000000000
0000000000
0000000000
0000000000
0000000000
0000000000
0000000000
0000000000
0000000000
ENDCHAR
STARTCHAR U+2010
ENCODING 8208
SWIDTH 1000 0
DWIDTH 20 0
BBX 33 40 -6 -8
BITMAP
0000000000
0000000000
0000000000
0000000000
0000000000
0000000000
0000000000
0000000000
0000000000
0000000000
0000000000
0000000000
0000000000
0000000000
0000000000
0000000000
001ff00000
001ff00000
003fe00000
003fe00000
0000000000
0000000000
0000000000
0000000000
0000000000
0000000000
0000000000
0000000000
0000000000
0000000000
0000000000
0000000000
0000000000
0000000000
0000000000
0000000000
0000000000
0000000000
0000000000
0000000000
ENDCHAR
STARTCHAR U+007F
ENCODING 127
SWIDTH 1000 0
DWIDTH 20 0
BBX 33 40 -6 -8
BITMAP
0000000000
0000000000
0000000000
0000000000
001ff00000
001ff00000
003fe00000
003fe00000
003ef80000
007df00000
007df00000
007df00000
00fbe00000
00fbe00000
00fbe00000
01f7c00000
01f7c00000
01f7c00000
03ef800000
03ef800000
03ffe00000
07ffc00000
07ffc00000
07ffc00000
00f8000000
00f8000000
00f8000000
01f0000000
01f0000000
01f0000000
03e0000000
03e0000000
03e0000000
07c0000000
07c0000000
07c0000000
0f80000000
0f80000000
0f80000000
1f00000000
ENDCHAR
STARTCHAR U+007E
ENCODING 126
SWIDTH 1000 0
DWIDTH 20 0
BBX 33 40 -6 -8
BITMAP
0000000000
0000000000
0000000000
0000000000
0007f1f000
0007f1f000
000fe3e000
000fe3e000
003efbe000
007df7c000
007df7c000
007df7c000
00f8fe0000
00f8fe0000
00f8fe0000
01f1fc0000
0000000000
0000000000
0000000000
0000000000
0000000000
0000000000
0000000000
0000000000
0000000000
0000000000
0000000000
0000000000
0000000000
0000000000
0000000000
0000000000
0000000000
0000000000
0000000000
0000000000
0000000000
0000000000
0000000000
0000000000
ENDCHAR
STARTCHAR U+007D
ENCODING 125
SWIDTH 1000 0
DWIDTH 20 0
BBX 33 40 -6 -8
BITMAP
0000000000
0000000000
0000000000
0000000000
001ff00000
001ff00000
003fe00000
003fe00000
0000f80000
0001f00000
0001f00000
0001f00000
000f800000
000f800000
000f800000
001f000000
0007f00000
0007f00000
000fe00000
000fe00000
003e000000
007c000000
007c000000
007c000000
003e000000
003e000000
003e000000
007c000000
1ff0000000
1ff0000000
3fe0000000
3fe0000000
0000000000
0000000000
0000000000
0000000000
0000000000
0000000000
0000000000
0000000000
ENDCHAR
STARTCHAR U+007C
ENCODING 124
SWIDTH 1000 0
DWIDTH 20 0
BBX 33 40 -6 -8
BITMAP
0000000000
0000000000
0000000000
0000000000
00007c0000
00007c0000
0000f80000
0000f80000
0000f80000
0001f00000
0001f00000
0001f00000
0003e00000
0003e00000
0003e00000
0007c00000
0007c00000
0007c00000
000f800000
000f800000
000f800000
001f000000
001f000000
001f000000
003e000000
003e000000
003e000000
007c000000
007c000000
007c000000
00f8000000
00f8000000
0000000000
0000000000
0000000000
0000000000
0000000000
0000000000
0000000000
0000000000
ENDCHAR
STARTCHAR U+007B
ENCODING 123
SWIDTH 1000 0
DWIDTH 20 0
BBX 33 40 -6 -8
BITMAP
0000000000
0000000000
0000000000
0000000000
00001ff000
00001ff000
00003fe000
00003fe000
0000f80000
0001f00000
0001f00000
0001f00000
0000f80000
0000f80000
0000f80000
0001f00000
001fc00000
001fc00000
003f800000
003f800000
0003e00000
0007c00000
0007c00000
0007c00000
003e000000
003e000000
003e000000
007c000000
001ff00000
001ff00000
003fe00000
003fe00000
0000000000
0000000000
0000000000
0000000000
0000000000
0000000000
0000000000
0000000000
ENDCHAR
STARTCHAR U+007A
ENCODING 122
SWIDTH 1000 0
DWIDTH 20 0
BBX 33 40 -6 -8
BITMAP
0000000000
0000000000
0000000000
0000000000
0000000000
0000000000
0000000000
0000000000
0000000000
0000000000
0000000000
0000000000
00ffff8000
00ffff8000
00ffff8000
01ffff0000
00007c0000
00007c0000
0000f80000
0000f80000
000fe00000
001fc00000
001fc00000
001fc00000
00f8000000
00f8000000
00f8000000
01f0000000
1ffff00000
1ffff00000
3fffe00000
3fffe00000
0000000000
0000000000
0000000000
0000000000
0000000000
0000000000
0000000000
0000000000
ENDCHAR
STARTCHAR U+0079
ENCODING 121
SWIDTH 1000 0
DWIDTH 20 0
BBX 33 40 -6 -8
BITMAP
0000000000
0000000000
0000000000
0000000000
0000000000
0000000000
0000000000
0000000000
0000000000
0000000000
0000000000
0000000000
00f83e0000
00f83e0000
00f83e0000
01f07c0000
01f07c0000
01f07c0000
03e0f80000
03e0f80000
03e3f80000
07c7f00000
07c7f00000
07c7f00000
03ffe00000
03ffe00000
03ffe00000
07ffc00000
0007c00000
0007c00000
000f800000
000f800000
3e0f800000
7c1f000000
7c1f000000
7c1f000000
3ff8000000
3ff8000000
3ff8000000
7ff0000000
ENDCHAR
STARTCHAR U+0078
ENCODING 120
SWIDTH 1000 0
DWIDTH 20 0
BBX 33 40 -6 -8
BITMAP
0000000000
0000000000
0000000000
0000000000
0000000000
0000000000
0000000000
0000000000
0000000000
0000000000
0000000000
0000000000
00f83e0000
00f83e0000
00f83e0000
01f07c0000
007df00000
007df00000
00fbe00000
00fbe00000
003f800000
007f000000
007f000000
007f000000
03ef800000
03ef800000
03ef800000
07df000000
1f07c00000
1f07c00000
3e0f800000
3e0f800000
0000000000
0000000000
0000000000
0000000000
0000000000
0000000000
0000000000
0000000000
ENDCHAR
STARTCHAR U+0077
ENCODING 119
SWIDTH 1000 0
DWIDTH 20 0
BBX 33 40 -6 -8
BITMAP
0000000000
0000000000
0000000000
0000000000
0000000000
0000000000
0000000000
0000000000
0000000000
0000000000
0000000000
0000000000
00f80f8000
00f80f8000
00f80f8000
01f01f0000
01f01f0000
01f01f0000
03e03e0000
03e03e0000
03efbe0000
07df7c0000
07df7c0000
07df7c0000
0ffff80000
0ffff80000
0ffff80000
1ffff00000
07c7c00000
07c7c00000
0f8f800000
0f8f800000
0000000000
0000000000
0000000000
0000000000
0000000000
0000000000
0000000000
0000000000
ENDCHAR
STARTCHAR U+0076
ENCODING 118
SWIDTH 1000 0
DWIDTH 20 0
BBX 33 40 -6 -8
BITMAP
0000000000
0000000000
0000000000
0000000000
0000000000
0000000000
0000000000
0000000000
0000000000
0000000000
0000000000
0000000000
00f80f8000
00f80f8000
00f80f8000
01f01f0000
01f01f0000
01f01f0000
03e03e0000
03e03e0000
00f8f80000
01f1f00000
01f1f00000
01f1f00000
00ff800000
00ff800000
00ff800000
01ff000000
007c000000
007c000000
00f8000000
00f8000000
0000000000
0000000000
0000000000
0000000000
0000000000
0000000000
0000000000
0000000000
ENDCHAR
STARTCHAR U+0075
ENCODING 117
SWIDTH 1000 0
DWIDTH 20 0
BBX 33 40 -6 -8
BITMAP
0000000000
0000000000
0000000000
0000000000
0000000000
0000000000
0000000000
0000000000
0000000000
0000000000
0000000000
0000000000
00f83e0000
00f83e0000
00f83e0000
01f07c0000
01f07c0000
01f07c0000
03e0f80000
03e0f80000
03e0f80000
07c1f00000
07c1f00000
07c1f00000
0f83e00000
0f83e00000
0f83e00000
1f07c00000
07fff00000
07fff00000
0fffe00000
0fffe00000
0000000000
0000000000
0000000000
0000000000
0000000000
0000000000
0000000000
0000000000
ENDCHAR
STARTCHAR U+0074
ENCODING 116
SWIDTH 1000 0
DWIDTH 20 0
BBX 33 40 -6 -8
BITMAP
0000000000
0000000000
0000000000
0000000000
0001f00000
0001f00000
0003e00000
0003e00000
0003e00000
0007c00000
0007c00000
0007c00000
00fff80000
00fff80000
00fff80000
01fff00000
001f000000
001f000000
003e000000
003e000000
003e000000
007c000000
007c000000
007c000000
00fbe00000
00fbe00000
00fbe00000
01f7c00000
007f000000
007f000000
00fe000000
00fe000000
0000000000
0000000000
0000000000
0000000000
0000000000
0000000000
0000000000
0000000000
ENDCHAR
STARTCHAR U+0073
ENCODING 115
SWIDTH 1000 0
DWIDTH 20 0
BBX 33 40 -6 -8
BITMAP
0000000000
0000000000
0000000000
0000000000
0000000000
0000000000
0000000000
0000000000
0000000000
0000000000
0000000000
0000000000
003ffe0000
003ffe0000
003ffe0000
007ffc0000
01f0000000
01f0000000
03e0000000
03e0000000
00fff80000
01fff00000
01fff00000
01fff00000
0000f80000
0000f80000
0000f80000
0001f00000
1fffc00000
1fffc00000
3fff800000
3fff800000
0000000000
0000000000
0000000000
0000000000
0000000000
0000000000
0000000000
0000000000
ENDCHAR
STARTCHAR U+0072
ENCODING 114
SWIDTH 1000 0
DWIDTH 20 0
BBX 33 40 -6 -8
BITMAP
0000000000
0000000000
0000000000
0000000000
0000000000
0000000000
0000000000
0000000000
0000000000
0000000000
0000000000
0000000000
00fbfe0000
00fbfe0000
00fbfe0000
01f7fc0000
007f1f0000
007f1f0000
00fe3e0000
00fe3e0000
00f8000000
01f0000000
01f0000000
01f0000000
03e0000000
03e0000000
03e0000000
07c0000000
07c0000000
07c0000000
0f80000000
0f80000000
0000000000
0000000000
0000000000
0000000000
0000000000
0000000000
0000000000
0000000000
ENDCHAR
STARTCHAR U+0071
ENCODING 113
SWIDTH 1000 0
DWIDTH 20 0
BBX 33 40 -6 -8
BITMAP
0000000000
0000000000
0000000000
0000000000
0000000000
0000000000
0000000000
0000000000
0000000000
0000000000
0000000000
0000000000
003fff8000
003fff8000
003fff8000
007fff0000
01f07f0000
01f07f0000
03e0fe0000
03e0fe0000
03e0fe0000
07c1fc0000
07c1fc0000
07c1fc0000
03fff80000
03fff80000
03fff80000
07fff00000
0001f00000
0001f00000
0003e00000
0003e00000
0003e00000
0007c00000
0007c00000
0007c00000
000f800000
000f800000
000f800000
001f000000
ENDCHAR
STARTCHAR U+0070
ENCODING 112
SWIDTH 1000 0
DWIDTH 20 0
BBX 33 40 -6 -8
BITMAP
0000000000
0000000000
0000000000
0000000000
0000000000
0000000000
0000000000
0000000000
0000000000
0000000000
0000000000
0000000000
00fffe0000
00fffe0000
00fffe0000
01fffc0000
01fc1f0000
01fc1f0000
03f83e0000
03f83e0000
03f83e0000
07f07c0000
07f07c0000
07f07c0000
0fffe00000
0fffe00000
0fffe00000
1fffc00000
1f00000000
1f00000000
3e00000000
3e00000000
3e00000000
7c00000000
7c00000000
7c00000000
f800000000
f800000000
f800000000
f000000000
ENDCHAR
STARTCHAR U+006f
ENCODING 111
SWIDTH 1000 0
DWIDTH 20 0
BBX 33 40 -6 -8
BITMAP
0000000000
0000000000
0000000000
0000000000
0000000000
0000000000
0000000000
0000000000
0000000000
0000000000
0000000000
0000000000
003ffe0000
003ffe0000
003ffe0000
007ffc0000
01f01f0000
01f01f0000
03e03e0000
03e03e0000
03e03e0000
07c07c0000
07c07c0000
07c07c0000
0f80f80000
0f80f80000
0f80f80000
1f01f00000
07ffc00000
07ffc00000
0fff800000
0fff800000
0000000000
0000000000
0000000000
0000000000
0000000000
0000000000
0000000000
0000000000
ENDCHAR
STARTCHAR U+006e
ENCODING 110
SWIDTH 1000 0
DWIDTH 20 0
BBX 33 40 -6 -8
BITMAP
0000000000
0000000000
0000000000
0000000000
0000000000
0000000000
0000000000
0000000000
0000000000
0000000000
0000000000
0000000000
00fffe0000
00fffe0000
00fffe0000
01fffc0000
01fc1f0000
01fc1f0000
03f83e0000
03f83e0000
03e03e0000
07c07c0000
07c07c0000
07c07c0000
0f80f80000
0f80f80000
0f80f80000
1f01f00000
1f01f00000
1f01f00000
3e03e00000
3e03e00000
0000000000
0000000000
0000000000
0000000000
0000000000
0000000000
0000000000
0000000000
ENDCHAR
STARTCHAR U+006d
ENCODING 109
SWIDTH 1000 0
DWIDTH 20 0
BBX 33 40 -6 -8
BITMAP
0000000000
0000000000
0000000000
0000000000
0000000000
0000000000
0000000000
0000000000
0000000000
0000000000
0000000000
0000000000
00fe3e0000
00fe3e0000
00fe3e0000
01fc7c0000
01ffff0000
01ffff0000
03fffe0000
03fffe0000
03efbe0000
07df7c0000
07df7c0000
07df7c0000
0fbef80000
0fbef80000
0fbef80000
1f7df00000
1f01f00000
1f01f00000
3e03e00000
3e03e00000
0000000000
0000000000
0000000000
0000000000
0000000000
0000000000
0000000000
0000000000
ENDCHAR
STARTCHAR U+006c
ENCODING 108
SWIDTH 1000 0
DWIDTH 20 0
BBX 33 40 -6 -8
BITMAP
0000000000
0000000000
0000000000
0000000000
0001fc0000
0001fc0000
0003f80000
0003f80000
0000f80000
0001f00000
0001f00000
0001f00000
0003e00000
0003e00000
0003e00000
0007c00000
0007c00000
0007c00000
000f800000
000f800000
000f800000
001f000000
001f000000
001f000000
003e000000
003e000000
003e000000
007c000000
01ff000000
01ff000000
03fe000000
03fe000000
0000000000
0000000000
0000000000
0000000000
0000000000
0000000000
0000000000
0000000000
ENDCHAR
STARTCHAR U+006b
ENCODING 107
SWIDTH 1000 0
DWIDTH 20 0
BBX 33 40 -6 -8
BITMAP
0000000000
0000000000
0000000000
0000000000
001f000000
001f000000
003e000000
003e000000
003e000000
007c000000
007c000000
007c000000
00f8f80000
00f8f80000
00f8f80000
01f1f00000
01f7c00000
01f7c00000
03ef800000
03ef800000
03fe000000
07fc000000
07fc000000
07fc000000
0f8f800000
0f8f800000
0f8f800000
1f1e800000
1f01f00000
1f01f00000
3e03e00000
3e03e00000
0000000000
0000000000
0000000000
0000000000
0000000000
0000000000
0000000000
0000000000
ENDCHAR
STARTCHAR U+006a
ENCODING 106
SWIDTH 1000 0
DWIDTH 20 0
BBX 33 40 -6 -8
BITMAP
0000000000
0000000000
0000000000
0000000000
000007c000
000007c000
00000f8000
00000f8000
0000000000
0000000000
0000000000
0000000000
00003e0000
00003e0000
00003e0000
00007c0000
00007c0000
00007c0000
0000f80000
0000f80000
0000f80000
0001f00000
0001f00000
0001f00000
0003e00000
0003e00000
0003e00000
0007c00000
1f07c00000
1f07c00000
3e0f800000
3e0f800000
3e0f800000
7c1f000000
7c1f000000
7c1f000000
3ff8000000
3ff8000000
3ff8000000
7ff0000000
ENDCHAR
STARTCHAR U+0069
ENCODING 105
SWIDTH 1000 0
DWIDTH 20 0
BBX 33 40 -6 -8
BITMAP
0000000000
0000000000
0000000000
0000000000
00007c0000
00007c0000
0000f80000
0000f80000
0000000000
0000000000
0000000000
0000000000
000fe00000
000fe00000
000fe00000
001fc00000
0007c00000
0007c00000
000f800000
000f800000
000f800000
001f000000
001f000000
001f000000
003e000000
003e000000
003e000000
007c000000
07ffc00000
07ffc00000
0fff800000
0fff800000
0000000000
0000000000
0000000000
0000000000
0000000000
0000000000
0000000000
0000000000
ENDCHAR
STARTCHAR U+0068
ENCODING 104
SWIDTH 1000 0
DWIDTH 20 0
BBX 33 40 -6 -8
BITMAP
0000000000
0000000000
0000000000
0000000000
001f000000
001f000000
003e000000
003e000000
003e000000
007c000000
007c000000
007c000000
00fffe0000
00fffe0000
00fffe0000
01fffc0000
01fc1f0000
01fc1f0000
03f83e0000
03f83e0000
03e03e0000
07c07c0000
07c07c0000
07c07c0000
0f80f80000
0f80f80000
0f80f80000
1f01f00000
1f01f00000
1f01f00000
3e03e00000
3e03e00000
0000000000
0000000000
0000000000
0000000000
0000000000
0000000000
0000000000
0000000000
ENDCHAR
STARTCHAR U+0067
ENCODING 103
SWIDTH 1000 0
DWIDTH 20 0
BBX 33 40 -6 -8
BITMAP
0000000000
0000000000
0000000000
0000000000
0000000000
0000000000
0000000000
0000000000
0000000000
0000000000
0000000000
0000000000
003fff8000
003fff8000
003fff8000
007fff0000
01f07c0000
01f07c0000
03e0f80000
03e0f80000
00ffe00000
01ffc00000
01ffc00000
01ffc00000
0f80000000
0f80000000
0f80000000
1f00000000
07ffc00000
07ffc00000
0fff800000
0fff800000
3e03e00000
7c07c00000
7c07c00000
7c07c00000
3ffe000000
3ffe000000
3ffe000000
7ffc000000
ENDCHAR
STARTCHAR U+0066
ENCODING 102
SWIDTH 1000 0
DWIDTH 20 0
BBX 33 40 -6 -8
BITMAP
0000000000
0000000000
0000000000
0000000000
00007fc000
00007fc000
0000ff8000
0000ff8000
0003e3e000
0007c7c000
0007c7c000
0007c7c000
000f800000
000f800000
000f800000
001f000000
01fff00000
01fff00000
03ffe00000
03ffe00000
003e000000
007c000000
007c000000
007c000000
00f8000000
00f8000000
00f8000000
01f0000000
01f0000000
01f0000000
03e0000000
03e0000000
0000000000
0000000000
0000000000
0000000000
0000000000
0000000000
0000000000
0000000000
ENDCHAR
STARTCHAR U+0065
ENCODING 101
SWIDTH 1000 0
DWIDTH 20 0
BBX 33 40 -6 -8
BITMAP
0000000000
0000000000
0000000000
0000000000
0000000000
0000000000
0000000000
0000000000
0000000000
0000000000
0000000000
0000000000
003ffe0000
003ffe0000
003ffe0000
007ffc0000
01f01f0000
01f01f0000
03e03e0000
03e03e0000
03fffe0000
07fffc0000
07fffc0000
07fffc0000
0f80000000
0f80000000
0f80000000
1f00000000
07ffc00000
07ffc00000
0fff800000
0fff800000
0000000000
0000000000
0000000000
0000000000
0000000000
0000000000
0000000000
0000000000
ENDCHAR
STARTCHAR U+0064
ENCODING 100
SWIDTH 1000 0
DWIDTH 20 0
BBX 33 40 -6 -8
BITMAP
0000000000
0000000000
0000000000
0000000000
000001f000
000001f000
000003e000
000003e000
000003e000
000007c000
000007c000
000007c000
003fff8000
003fff8000
003fff8000
007fff0000
01f07f0000
01f07f0000
03e0fe0000
03e0fe0000
03e03e0000
07c07c0000
07c07c0000
07c07c0000
0f83f80000
0f83f80000
0f83f80000
1f07f00000
07fff00000
07fff00000
0fffe00000
0fffe00000
0000000000
0000000000
0000000000
0000000000
0000000000
0000000000
0000000000
0000000000
ENDCHAR
STARTCHAR U+0063
ENCODING 99
SWIDTH 1000 0
DWIDTH 20 0
BBX 33 40 -6 -8
BITMAP
0000000000
0000000000
0000000000
0000000000
0000000000
0000000000
0000000000
0000000000
0000000000
0000000000
0000000000
0000000000
003ffe0000
003ffe0000
003ffe0000
007ffc0000
01f01f0000
01f01f0000
03e03e0000
03e03e0000
03e0000000
07c0000000
07c0000000
07c0000000
0f80000000
0f80000000
0f80000000
1f00000000
07fff00000
07fff00000
0fffe00000
0fffe00000
0000000000
0000000000
0000000000
0000000000
0000000000
0000000000
0000000000
0000000000
ENDCHAR
STARTCHAR U+0062
ENCODING 98
SWIDTH 1000 0
DWIDTH 20 0
BBX 33 40 -6 -8
BITMAP
0000000000
0000000000
0000000000
0000000000
001f000000
001f000000
003e000000
003e000000
003e000000
007c000000
007c000000
007c000000
00fffe0000
00fffe0000
00fffe0000
01fffc0000
01fc1f0000
01fc1f0000
03f83e0000
03f83e0000
03e03e0000
07c07c0000
07c07c0000
07c07c0000
0fe0f80000
0fe0f80000
0fe0f80000
1fc1f00000
1fffc00000
1fffc00000
3fff800000
3fff800000
0000000000
0000000000
0000000000
0000000000
0000000000
0000000000
0000000000
0000000000
ENDCHAR
STARTCHAR U+0061
ENCODING 97
SWIDTH 1000 0
DWIDTH 20 0
BBX 33 40 -6 -8
BITMAP
0000000000
0000000000
0000000000
0000000000
0000000000
0000000000
0000000000
0000000000
0000000000
0000000000
0000000000
0000000000
003ffe0000
003ffe0000
003ffe0000
007ffc0000
00001f0000
00001f0000
00003e0000
00003e0000
00fffe0000
01fffc0000
01fffc0000
01fffc0000
0f83f80000
0f83f80000
0f83f80000
1f07f00000
07fff00000
07fff00000
0fffe00000
0fffe00000
0000000000
0000000000
0000000000
0000000000
0000000000
0000000000
0000000000
0000000000
ENDCHAR
STARTCHAR U+0060
ENCODING 96
SWIDTH 1000 0
DWIDTH 20 0
BBX 33 40 -6 -8
BITMAP
0000000000
0000000000
0000000000
0000000000
0001fc0000
0001fc0000
0003f80000
0003f80000
0000f80000
0001f00000
0001f00000
0001f00000
0000f80000
0000f80000
0000f80000
0001f00000
0000000000
0000000000
0000000000
0000000000
0000000000
0000000000
0000000000
0000000000
0000000000
0000000000
0000000000
0000000000
0000000000
0000000000
0000000000
0000000000
0000000000
0000000000
0000000000
0000000000
0000000000
0000000000
0000000000
0000000000
ENDCHAR
STARTCHAR U+005F
ENCODING 95
SWIDTH 1000 0
DWIDTH 20 0
BBX 33 40 -6 -8
BITMAP
0000000000
0000000000
0000000000
0000000000
0000000000
0000000000
0000000000
0000000000
0000000000
0000000000
0000000000
0000000000
0000000000
0000000000
0000000000
0000000000
0000000000
0000000000
0000000000
0000000000
0000000000
0000000000
0000000000
0000000000
0000000000
0000000000
0000000000
0000000000
1ffff00000
1ffff00000
3fffe00000
3fffe00000
0000000000
0000000000
0000000000
0000000000
0000000000
0000000000
0000000000
0000000000
ENDCHAR
STARTCHAR U+005E
ENCODING 94
SWIDTH 1000 0
DWIDTH 20 0
BBX 33 40 -6 -8
BITMAP
0000000000
0000000000
0000000000
0000000000
00007c0000
00007c0000
0000f80000
0000f80000
0003fe0000
0007fc0000
0007fc0000
0007fc0000
003e3e0000
003e3e0000
003e3e0000
007c7c0000
01f01f0000
01f01f0000
03e03e0000
03e03e0000
0000000000
0000000000
0000000000
0000000000
0000000000
0000000000
0000000000
0000000000
0000000000
0000000000
0000000000
0000000000
0000000000
0000000000
0000000000
0000000000
0000000000
0000000000
0000000000
0000000000
ENDCHAR
STARTCHAR U+005D
ENCODING 93
SWIDTH 1000 0
DWIDTH 20 0
BBX 33 40 -6 -8
BITMAP
0000000000
0000000000
0000000000
0000000000
0007ff0000
0007ff0000
000ffe0000
000ffe0000
00003e0000
00007c0000
00007c0000
00007c0000
0000f80000
0000f80000
0000f80000
0001f00000
0001f00000
0001f00000
0003e00000
0003e00000
0003e00000
0007c00000
0007c00000
0007c00000
000f800000
000f800000
000f800000
001f000000
07ff000000
07ff000000
0ffe000000
0ffe000000
0000000000
0000000000
0000000000
0000000000
0000000000
0000000000
0000000000
0000000000
ENDCHAR
STARTCHAR U+005C
ENCODING 92
SWIDTH 1000 0
DWIDTH 20 0
BBX 33 40 -6 -8
BITMAP
0000000000
0000000000
0000000000
0000000000
001f000000
001f000000
003e000000
003e000000
000f800000
001f000000
001f000000
001f000000
000f800000
000f800000
000f800000
001f000000
0007c00000
0007c00000
000f800000
000f800000
0003e00000
0007c00000
0007c00000
0007c00000
0003e00000
0003e00000
0003e00000
0007c00000
0001f00000
0001f00000
0003e00000
0003e00000
0000000000
0000000000
0000000000
0000000000
0000000000
0000000000
0000000000
0000000000
ENDCHAR
STARTCHAR U+005B
ENCODING 91
SWIDTH 1000 0
DWIDTH 20 0
BBX 33 40 -6 -8
BITMAP
0000000000
0000000000
0000000000
0000000000
0001ffc000
0001ffc000
0003ff8000
0003ff8000
0003e00000
0007c00000
0007c00000
0007c00000
000f800000
000f800000
000f800000
001f000000
001f000000
001f000000
003e000000
003e000000
003e000000
007c000000
007c000000
007c000000
00f8000000
00f8000000
00f8000000
01f0000000
01ffc00000
01ffc00000
03ff800000
03ff800000
0000000000
0000000000
0000000000
0000000000
0000000000
0000000000
0000000000
0000000000
ENDCHAR
STARTCHAR U+005A
ENCODING 90
SWIDTH 1000 0
DWIDTH 20 0
BBX 33 40 -6 -8
BITMAP
0000000000
0000000000
0000000000
0000000000
001ffff000
001ffff000
003fffe000
003fffe000
00000f8000
00001f0000
00001f0000
00001f0000
0000f80000
0000f80000
0000f80000
0001f00000
0007c00000
0007c00000
000f800000
000f800000
003e000000
007c000000
007c000000
007c000000
03e0000000
03e0000000
03e0000000
07c0000000
1ffff00000
1ffff00000
3fffe00000
3fffe00000
0000000000
0000000000
0000000000
0000000000
0000000000
0000000000
0000000000
0000000000
ENDCHAR
STARTCHAR U+0059
ENCODING 89
SWIDTH 1000 0
DWIDTH 20 0
BBX 33 40 -6 -8
BITMAP
0000000000
0000000000
0000000000
0000000000
001f01f000
001f01f000
003e03e000
003e03e000
000f8f8000
001f1f0000
001f1f0000
001f1f0000
000ff80000
000ff80000
000ff80000
001ff00000
0007c00000
0007c00000
000f800000
000f800000
000f800000
001f000000
001f000000
001f000000
003e000000
003e000000
003e000000
007c000000
007c000000
007c000000
00f8000000
00f8000000
0000000000
0000000000
0000000000
0000000000
0000000000
0000000000
0000000000
0000000000
ENDCHAR
STARTCHAR U+0058
ENCODING 88
SWIDTH 1000 0
DWIDTH 20 0
BBX 33 40 -6 -8
BITMAP
0000000000
0000000000
0000000000
0000000000
001f01f000
001f01f000
003e03e000
003e03e000
000f8f8000
001f1f0000
001f1f0000
001f1f0000
000ff80000
000ff80000
000ff80000
001ff00000
0007c00000
0007c00000
000f800000
000f800000
003fe00000
007fc00000
007fc00000
007fc00000
03e3e00000
03e3e00000
03e3e00000
07c7c00000
1f01f00000
1f01f00000
3e03e00000
3e03e00000
0000000000
0000000000
0000000000
0000000000
0000000000
0000000000
0000000000
0000000000
ENDCHAR
STARTCHAR U+0057
ENCODING 87
SWIDTH 1000 0
DWIDTH 20 0
BBX 33 40 -6 -8
BITMAP
0000000000
0000000000
0000000000
0000000000
001f01f000
001f01f000
003e03e000
003e03e000
003e03e000
007c07c000
007c07c000
007c07c000
00f80f8000
00f80f8000
00f80f8000
01f01f0000
01f7df0000
01f7df0000
03efbe0000
03efbe0000
03efbe0000
07df7c0000
07df7c0000
07df7c0000
0ffff80000
0ffff80000
0ffff80000
1ffff00000
07c7c00000
07c7c00000
0f8f800000
0f8f800000
0000000000
0000000000
0000000000
0000000000
0000000000
0000000000
0000000000
0000000000
ENDCHAR
STARTCHAR U+0056
ENCODING 86
SWIDTH 1000 0
DWIDTH 20 0
BBX 33 40 -6 -8
BITMAP
0000000000
0000000000
0000000000
0000000000
001f01f000
001f01f000
003e03e000
003e03e000
003e03e000
007c07c000
007c07c000
007c07c000
003e3e0000
003e3e0000
003e3e0000
007c7c0000
007c7c0000
007c7c0000
00f8f80000
00f8f80000
003fe00000
007fc00000
007fc00000
007fc00000
00ff800000
00ff800000
00ff800000
01ff000000
007c000000
007c000000
00f8000000
00f8000000
0000000000
0000000000
0000000000
0000000000
0000000000
0000000000
0000000000
0000000000
ENDCHAR
STARTCHAR U+0055
ENCODING 85
SWIDTH 1000 0
DWIDTH 20 0
BBX 33 40 -6 -8
BITMAP
0000000000
0000000000
0000000000
0000000000
001f01f000
001f01f000
003e03e000
003e03e000
003e03e000
007c07c000
007c07c000
007c07c000
00f80f8000
00f80f8000
00f80f8000
01f01f0000
01f01f0000
01f01f0000
03e03e0000
03e03e0000
03e03e0000
07c07c0000
07c07c0000
07c07c0000
0f80f80000
0f80f80000
0f80f80000
1f01f00000
07ffc00000
07ffc00000
0fff800000
0fff800000
0000000000
0000000000
0000000000
0000000000
0000000000
0000000000
0000000000
0000000000
ENDCHAR
STARTCHAR U+0054
ENCODING 84
SWIDTH 1000 0
DWIDTH 20 0
BBX 33 40 -6 -8
BITMAP
0000000000
0000000000
0000000000
0000000000
001ffff000
001ffff000
003fffe000
003fffe000
0000f80000
0001f00000
0001f00000
0001f00000
0003e00000
0003e00000
0003e00000
0007c00000
0007c00000
0007c00000
000f800000
000f800000
000f800000
001f000000
001f000000
001f000000
003e000000
003e000000
003e000000
007c000000
007c000000
007c000000
00f8000000
00f8000000
0000000000
0000000000
0000000000
0000000000
0000000000
0000000000
0000000000
0000000000
ENDCHAR
STARTCHAR U+0053
ENCODING 83
SWIDTH 1000 0
DWIDTH 20 0
BBX 33 40 -6 -8
BITMAP
0000000000
0000000000
0000000000
0000000000
0007ffc000
0007ffc000
000fff8000
000fff8000
003e03e000
007c07c000
007c07c000
007c07c000
00f8000000
00f8000000
00f8000000
01f0000000
007ffc0000
007ffc0000
00fff80000
00fff80000
00003e0000
00007c0000
00007c0000
00007c0000
0f80f80000
0f80f80000
0f80f80000
1f01f00000
07ffc00000
07ffc00000
0fff800000
0fff800000
0000000000
0000000000
0000000000
0000000000
0000000000
0000000000
0000000000
0000000000
ENDCHAR
STARTCHAR U+0052
ENCODING 82
SWIDTH 1000 0
DWIDTH 20 0
BBX 33 40 -6 -8
BITMAP
0000000000
0000000000
0000000000
0000000000
001fffc000
001fffc000
003fff8000
003fff8000
003e03e000
007c07c000
007c07c000
007c07c000
00f80f8000
00f80f8000
00f80f8000
01f01f0000
01fffc0000
01fffc0000
03fff80000
03fff80000
03e3e00000
07c7c00000
07c7c00000
07c7c00000
0f83e00000
0f83e00000
0f83e00000
1f07c00000
1f01f00000
1f01f00000
3e03e00000
3e03e00000
0000000000
0000000000
0000000000
0000000000
0000000000
0000000000
0000000000
0000000000
ENDCHAR
STARTCHAR U+0051
ENCODING 81
SWIDTH 1000 0
DWIDTH 20 0
BBX 33 40 -6 -8
BITMAP
0000000000
0000000000
0000000000
0000000000
0007ffc000
0007ffc000
000fff8000
000fff8000
003e03e000
007c07c000
007c07c000
007c07c000
00f80f8000
00f80f8000
00f80f8000
01f01f0000
01f01f0000
01f01f0000
03e03e0000
03e03e0000
03e3fe0000
07c7fc0000
07c7fc0000
07c7fc0000
0f83e00000
0f83e00000
0f83e00000
1f07c00000
07fff00000
07fff00000
0fffe00000
0fffe00000
0000000000
0000000000
0000000000
0000000000
0000000000
0000000000
0000000000
0000000000
ENDCHAR
STARTCHAR U+0050
ENCODING 80
SWIDTH 1000 0
DWIDTH 20 0
BBX 33 40 -6 -8
BITMAP
0000000000
0000000000
0000000000
0000000000
001fffc000
001fffc000
003fff8000
003fff8000
003e03e000
007c07c000
007c07c000
007c07c000
00f80f8000
00f80f8000
00f80f8000
01f01f0000
01fffc0000
01fffc0000
03fff80000
03fff80000
03e0000000
07c0000000
07c0000000
07c0000000
0f80000000
0f80000000
0f80000000
1f00000000
1f00000000
1f00000000
3e00000000
3e00000000
0000000000
0000000000
0000000000
0000000000
0000000000
0000000000
0000000000
0000000000
ENDCHAR
STARTCHAR U+004F
ENCODING 79
SWIDTH 1000 0
DWIDTH 20 0
BBX 33 40 -6 -8
BITMAP
0000000000
0000000000
0000000000
0000000000
0007ffc000
0007ffc000
000fff8000
000fff8000
003e03e000
007c07c000
007c07c000
007c07c000
00f80f8000
00f80f8000
00f80f8000
01f01f0000
01f01f0000
01f01f0000
03e03e0000
03e03e0000
03e03e0000
07c07c0000
07c07c0000
07c07c0000
0f80f80000
0f80f80000
0f80f80000
1f01f00000
07ffc00000
07ffc00000
0fff800000
0fff800000
0000000000
0000000000
0000000000
0000000000
0000000000
0000000000
0000000000
0000000000
ENDCHAR
STARTCHAR U+004E
ENCODING 78
SWIDTH 1000 0
DWIDTH 20 0
BBX 33 40 -6 -8
BITMAP
0000000000
0000000000
0000000000
0000000000
001f01f000
001f01f000
003e03e000
003e03e000
003f83e000
007f07c000
007f07c000
007f07c000
00ff8f8000
00ff8f8000
00ff8f8000
01ff1f0000
01f7df0000
01f7df0000
03efbe0000
03efbe0000
03e3fe0000
07c7fc0000
07c7fc0000
07c7fc0000
0f83f80000
0f83f80000
0f83f80000
1f07f00000
1f01f00000
1f01f00000
3e03e00000
3e03e00000
0000000000
0000000000
0000000000
0000000000
0000000000
0000000000
0000000000
0000000000
ENDCHAR
STARTCHAR U+004D
ENCODING 77
SWIDTH 1000 0
DWIDTH 20 0
BBX 33 40 -6 -8
BITMAP
0000000000
0000000000
0000000000
0000000000
001f01f000
001f01f000
003e03e000
003e03e000
003f8fe000
007f1fc000
007f1fc000
007f1fc000
00ffff8000
00ffff8000
00ffff8000
01ffff0000
01f7df0000
01f7df0000
03efbe0000
03efbe0000
03e03e0000
07c07c0000
07c07c0000
07c07c0000
0f80f80000
0f80f80000
0f80f80000
1f01f00000
1f01f00000
1f01f00000
3e03e00000
3e03e00000
0000000000
0000000000
0000000000
0000000000
0000000000
0000000000
0000000000
0000000000
ENDCHAR
STARTCHAR U+004C
ENCODING 76
SWIDTH 1000 0
DWIDTH 20 0
BBX 33 40 -6 -8
BITMAP
0000000000
0000000000
0000000000
0000000000
001f000000
001f000000
003e000000
003e000000
003e000000
007c000000
007c000000
007c000000
00f8000000
00f8000000
00f8000000
01f0000000
01f0000000
01f0000000
03e0000000
03e0000000
03e0000000
07c0000000
07c0000000
07c0000000
0f80000000
0f80000000
0f80000000
1f00000000
1ffff00000
1ffff00000
3fffe00000
3fffe00000
0000000000
0000000000
0000000000
0000000000
0000000000
0000000000
0000000000
0000000000
ENDCHAR
STARTCHAR U+004B
ENCODING 75
SWIDTH 1000 0
DWIDTH 20 0
BBX 33 40 -6 -8
BITMAP
0000000000
0000000000
0000000000
0000000000
001f01f000
001f01f000
003e03e000
003e03e000
003e3f8000
007c7f0000
007c7f0000
007c7f0000
00ffe00000
00ffe00000
00ffe00000
01ffc00000
01fc000000
01fc000000
03f8000000
03f8000000
03ff800000
07ff000000
07ff000000
07ff000000
0f8fe00000
0f8fe00000
0f8fe00000
1f1fc00000
1f01f00000
1f01f00000
3e03e00000
3e03e00000
0000000000
0000000000
0000000000
0000000000
0000000000
0000000000
0000000000
0000000000
ENDCHAR
STARTCHAR U+004A
ENCODING 74
SWIDTH 1000 0
DWIDTH 20 0
BBX 33 40 -6 -8
BITMAP
0000000000
0000000000
0000000000
0000000000
00001ff000
00001ff000
00003fe000
00003fe000
00000f8000
00001f0000
00001f0000
00001f0000
00003e0000
00003e0000
00003e0000
00007c0000
00007c0000
00007c0000
0000f80000
0000f80000
0000f80000
0001f00000
0001f00000
0001f00000
0f83e00000
0f83e00000
0f83e00000
1f07c00000
07ff000000
07ff000000
0ffe000000
0ffe000000
0000000000
0000000000
0000000000
0000000000
0000000000
0000000000
0000000000
0000000000
ENDCHAR
STARTCHAR U+0049
ENCODING 73
SWIDTH 1000 0
DWIDTH 20 0
BBX 33 40 -6 -8
BITMAP
0000000000
0000000000
0000000000
0000000000
0007ffc000
0007ffc000
000fff8000
000fff8000
0000f80000
0001f00000
0001f00000
0001f00000
0003e00000
0003e00000
0003e00000
0007c00000
0007c00000
0007c00000
000f800000
000f800000
000f800000
001f000000
001f000000
001f000000
003e000000
003e000000
003e000000
007c000000
07ffc00000
07ffc00000
0fff800000
0fff800000
0000000000
0000000000
0000000000
0000000000
0000000000
0000000000
0000000000
0000000000
ENDCHAR
STARTCHAR U+0048
ENCODING 72
SWIDTH 1000 0
DWIDTH 20 0
BBX 33 40 -6 -8
BITMAP
0000000000
0000000000
0000000000
0000000000
001f01f000
001f01f000
003e03e000
003e03e000
003e03e000
007c07c000
007c07c000
007c07c000
00f80f8000
00f80f8000
00f80f8000
01f01f0000
01ffff0000
01ffff0000
03fffe0000
03fffe0000
03e03e0000
07c07c0000
07c07c0000
07c07c0000
0f80f80000
0f80f80000
0f80f80000
1f01f00000
1f01f00000
1f01f00000
3e03e00000
3e03e00000
0000000000
0000000000
0000000000
0000000000
0000000000
0000000000
0000000000
0000000000
ENDCHAR
STARTCHAR U+0047
ENCODING 71
SWIDTH 1000 0
DWIDTH 20 0
BBX 33 40 -6 -8
BITMAP
0000000000
0000000000
0000000000
0000000000
0001ffc000
0001ffc000
0003ff8000
0003ff8000
000f83e000
001f07c000
001f07c000
001f07c000
00f8000000
00f8000000
00f8000000
01f0000000
01f0000000
01f0000000
03e0000000
03e0000000
03e3fe0000
07c7fc0000
07c7fc0000
07c7fc0000
03e0f80000
03e0f80000
03e0f80000
07c1f00000
01ffc00000
01ffc00000
03ff800000
03ff800000
0000000000
0000000000
0000000000
0000000000
0000000000
0000000000
0000000000
0000000000
ENDCHAR
STARTCHAR U+0046
ENCODING 70
SWIDTH 1000 0
DWIDTH 20 0
BBX 33 40 -6 -8
BITMAP
0000000000
0000000000
0000000000
0000000000
001ffff000
001ffff000
003fffe000
003fffe000
003e000000
007c000000
007c000000
007c000000
00f8000000
00f8000000
00f8000000
01f0000000
01fff00000
01fff00000
03ffe00000
03ffe00000
03e0000000
07c0000000
07c0000000
07c0000000
0f80000000
0f80000000
0f80000000
1f00000000
1f00000000
1f00000000
3e00000000
3e00000000
0000000000
0000000000
0000000000
0000000000
0000000000
0000000000
0000000000
0000000000
ENDCHAR
STARTCHAR U+0045
ENCODING 69
SWIDTH 1000 0
DWIDTH 20 0
BBX 33 40 -6 -8
BITMAP
0000000000
0000000000
0000000000
0000000000
001ffff000
001ffff000
003fffe000
003fffe000
003e000000
007c000000
007c000000
007c000000
00f8000000
00f8000000
00f8000000
01f0000000
01fff00000
01fff00000
03ffe00000
03ffe00000
03e0000000
07c0000000
07c0000000
07c0000000
0f80000000
0f80000000
0f80000000
1f00000000
1ffff00000
1ffff00000
3fffe00000
3fffe00000
0000000000
0000000000
0000000000
0000000000
0000000000
0000000000
0000000000
0000000000
ENDCHAR
STARTCHAR U+0044
ENCODING 68
SWIDTH 1000 0
DWIDTH 20 0
BBX 33 40 -6 -8
BITMAP
0000000000
0000000000
0000000000
0000000000
001fff0000
001fff0000
003ffe0000
003ffe0000
000f8f8000
001f1f0000
001f1f0000
001f1f0000
003e0f8000
003e0f8000
003e0f8000
007c1f0000
007c1f0000
007c1f0000
00f83e0000
00f83e0000
00f83e0000
01f07c0000
01f07c0000
01f07c0000
03e3e00000
03e3e00000
03e3e00000
07c7c00000
1fff000000
1fff000000
3ffe000000
3ffe000000
0000000000
0000000000
0000000000
0000000000
0000000000
0000000000
0000000000
0000000000
ENDCHAR
STARTCHAR U+0043
ENCODING 67
SWIDTH 1000 0
DWIDTH 20 0
BBX 33 40 -6 -8
BITMAP
0000000000
0000000000
0000000000
0000000000
0001ffc000
0001ffc000
0003ff8000
0003ff8000
000f83e000
001f07c000
001f07c000
001f07c000
00f8000000
00f8000000
00f8000000
01f0000000
01f0000000
01f0000000
03e0000000
03e0000000
03e0000000
07c0000000
07c0000000
07c0000000
03e0f80000
03e0f80000
03e0f80000
07c1f00000
01ffc00000
01ffc00000
03ff800000
03ff800000
0000000000
0000000000
0000000000
0000000000
0000000000
0000000000
0000000000
0000000000
ENDCHAR
STARTCHAR U+0042
ENCODING 66
SWIDTH 1000 0
DWIDTH 20 0
BBX 33 40 -6 -8
BITMAP
0000000000
0000000000
0000000000
0000000000
001fffc000
001fffc000
003fff8000
003fff8000
000f83e000
001f07c000
001f07c000
001f07c000
003e0f8000
003e0f8000
003e0f8000
007c1f0000
007ffc0000
007ffc0000
00fff80000
00fff80000
00f83e0000
01f07c0000
01f07c0000
01f07c0000
03e0f80000
03e0f80000
03e0f80000
07c1f00000
1fffc00000
1fffc00000
3fff800000
3fff800000
0000000000
0000000000
0000000000
0000000000
0000000000
0000000000
0000000000
0000000000
ENDCHAR
STARTCHAR U+0041
ENCODING 65
SWIDTH 1000 0
DWIDTH 20 0
BBX 33 40 -6 -8
BITMAP
0000000000
0000000000
0000000000
0000000000
00007c0000
00007c0000
0000f80000
0000f80000
0003fe0000
0007fc0000
0007fc0000
0007fc0000
003e3e0000
003e3e0000
003e3e0000
007c7c0000
01f01f0000
01f01f0000
03e03e0000
03e03e0000
03fffe0000
07fffc0000
07fffc0000
07fffc0000
0f80f80000
0f80f80000
0f80f80000
1f01f00000
1f01f00000
1f01f00000
3e03e00000
3e03e00000
0000000000
0000000000
0000000000
0000000000
0000000000
0000000000
0000000000
0000000000
ENDCHAR
STARTCHAR U+0040
ENCODING 64
SWIDTH 1000 0
DWIDTH 20 0
BBX 33 40 -6 -8
BITMAP
0000000000
0000000000
0000000000
0000000000
0007ffc000
0007ffc000
000fff8000
000fff8000
003e03e000
007c07c000
007c07c000
007c07c000
00fbff8000
00fbff8000
00fbff8000
01f7ff0000
01ff7f0000
01ff7f0000
03fefe0000
03fefe0000
03effe0000
07dffc0000
07dffc0000
07dffc0000
0f80000000
0f80000000
0f80000000
1f00000000
07ffc00000
07ffc00000
0fff800000
0fff800000
0000000000
0000000000
0000000000
0000000000
0000000000
0000000000
0000000000
0000000000
ENDCHAR
STARTCHAR U+003F
ENCODING 63
SWIDTH 1000 0
DWIDTH 20 0
BBX 33 40 -6 -8
BITMAP
0000000000
0000000000
0000000000
0000000000
0007ffc000
0007ffc000
000fff8000
000fff8000
003e03e000
007c07c000
007c07c000
007c07c000
0000fe0000
0000fe0000
0000fe0000
0001fc0000
0007c00000
0007c00000
000f800000
000f800000
000f800000
001f000000
001f000000
001f000000
0000000000
0000000000
0000000000
0000000000
007c000000
007c000000
00f8000000
00f8000000
0000000000
0000000000
0000000000
0000000000
0000000000
0000000000
0000000000
0000000000
ENDCHAR
STARTCHAR U+003E
ENCODING 62
SWIDTH 1000 0
DWIDTH 20 0
BBX 33 40 -6 -8
BITMAP
0000000000
0000000000
0000000000
0000000000
001f000000
001f000000
003e000000
003e000000
0006e00000
0007c00000
0007c00000
0007c00000
0000f80000
0000f80000
0000f80000
0001e80000
00001f0000
00001f0000
00003e0000
00003e0000
0003e00000
0007c00000
0007c00000
000fc00000
00f8000000
00f8000000
01b8000000
01f0000000
1f00000000
1f00000000
3e00000000
3e00000000
0000000000
0000000000
0000000000
0000000000
0000000000
0000000000
0000000000
0000000000
ENDCHAR
STARTCHAR U+003D
ENCODING 61
SWIDTH 1000 0
DWIDTH 20 0
BBX 33 40 -6 -8
BITMAP
0000000000
0000000000
0000000000
0000000000
0000000000
0000000000
0000000000
0000000000
0000000000
0000000000
0000000000
0000000000
00ffff8000
00ffff8000
00ffff8000
01ffff0000
0000000000
0000000000
0000000000
0000000000
03fffe0000
07fffc0000
07fffc0000
07fffc0000
0000000000
0000000000
0000000000
0000000000
0000000000
0000000000
0000000000
0000000000
0000000000
0000000000
0000000000
0000000000
0000000000
0000000000
0000000000
0000000000
ENDCHAR
STARTCHAR U+003C
ENCODING 60
SWIDTH 1000 0
DWIDTH 20 0
BBX 33 40 -6 -8
BITMAP
0000000000
0000000000
0000000000
0000000000
000001f000
000001f000
000003e000
000003e000
00003e0000
00007c0000
00007c0000
0000fc0000
000f800000
000f800000
001b800000
001f000000
01f0000000
01f0000000
03e0000000
03e0000000
006e000000
007c000000
007c000000
007c000000
000f800000
000f800000
000f800000
001e800000
0001f00000
0001f00000
0003e00000
0003e00000
0000000000
0000000000
0000000000
0000000000
0000000000
0000000000
0000000000
0000000000
ENDCHAR
STARTCHAR U+003B
ENCODING 59
SWIDTH 1000 0
DWIDTH 20 0
BBX 33 40 -6 -8
BITMAP
0000000000
0000000000
0000000000
0000000000
0000000000
0000000000
0000000000
0000000000
0003f80000
0007f00000
0007f00000
0007f00000
000fe00000
000fe00000
000fe00000
001fc00000
0000000000
0000000000
0000000000
0000000000
0000000000
0000000000
0000000000
0000000000
00fe000000
00fe000000
00fe000000
01fc000000
01f0000000
01f0000000
03e0000000
03e0000000
0f80000000
1f00000000
1f00000000
1f00000000
0000000000
0000000000
0000000000
0000000000
ENDCHAR
STARTCHAR U+003A
ENCODING 58
SWIDTH 1000 0
DWIDTH 20 0
BBX 33 40 -6 -8
BITMAP
0000000000
0000000000
0000000000
0000000000
0000000000
0000000000
0000000000
0000000000
0003f80000
0007f00000
0007f00000
0007f00000
000fe00000
000fe00000
000fe00000
001fc00000
0000000000
0000000000
0000000000
0000000000
0000000000
0000000000
0000000000
0000000000
00fe000000
00fe000000
00fe000000
01fc000000
01fc000000
01fc000000
03f8000000
03f8000000
0000000000
0000000000
0000000000
0000000000
0000000000
0000000000
0000000000
0000000000
ENDCHAR
STARTCHAR U+0039
ENCODING 57
SWIDTH 1000 0
DWIDTH 20 0
BBX 33 40 -6 -8
BITMAP
0000000000
0000000000
0000000000
0000000000
0007ffc000
0007ffc000
000fff8000
000fff8000
003e03e000
007c07c000
007c07c000
007c07c000
00f83f8000
00f83f8000
00f83f8000
01f07f0000
007fff0000
007fff0000
00fffe0000
00fffe0000
00003e0000
00007c0000
00007c0000
00007c0000
0003e00000
0003e00000
0003e00000
0007c00000
07ff000000
07ff000000
0ffe000000
0ffe000000
0000000000
0000000000
0000000000
0000000000
0000000000
0000000000
0000000000
0000000000
ENDCHAR
STARTCHAR U+0038
ENCODING 56
SWIDTH 1000 0
DWIDTH 20 0
BBX 33 40 -6 -8
BITMAP
0000000000
0000000000
0000000000
0000000000
0007ffc000
0007ffc000
000fff8000
000fff8000
003e03e000
007c07c000
007c07c000
007c07c000
00f80f8000
00f80f8000
00f80f8000
01f01f0000
007ffc0000
007ffc0000
00fff80000
00fff80000
03e03e0000
07c07c0000
07c07c0000
07c07c0000
0f80f80000
0f80f80000
0f80f80000
1f01f00000
07ffc00000
07ffc00000
0fff800000
0fff800000
0000000000
0000000000
0000000000
0000000000
0000000000
0000000000
0000000000
0000000000
ENDCHAR
STARTCHAR U+0037
ENCODING 55
SWIDTH 1000 0
DWIDTH 20 0
BBX 33 40 -6 -8
BITMAP
0000000000
0000000000
0000000000
0000000000
001ffff000
001ffff000
003fffe000
003fffe000
000003e000
000007c000
000007c000
000007c000
00003e0000
00003e0000
00003e0000
00007c0000
0001f00000
0001f00000
0003e00000
0003e00000
000f800000
001f000000
001f000000
001f000000
00f8000000
00f8000000
00f8000000
01f0000000
01f0000000
01f0000000
03e0000000
03e0000000
0000000000
0000000000
0000000000
0000000000
0000000000
0000000000
0000000000
0000000000
ENDCHAR
STARTCHAR U+0036
ENCODING 54
SWIDTH 1000 0
DWIDTH 20 0
BBX 33 40 -6 -8
BITMAP
0000000000
0000000000
0000000000
0000000000
0001ffc000
0001ffc000
0003ff8000
0003ff8000
000f800000
001f000000
001f000000
001f000000
00f8000000
00f8000000
00f8000000
01f0000000
01fffc0000
01fffc0000
03fff80000
03fff80000
03f83e0000
07f07c0000
07f07c0000
07f07c0000
0f80f80000
0f80f80000
0f80f80000
1f01f00000
07ffc00000
07ffc00000
0fff800000
0fff800000
0000000000
0000000000
0000000000
0000000000
0000000000
0000000000
0000000000
0000000000
ENDCHAR
STARTCHAR U+0035
ENCODING 53
SWIDTH 1000 0
DWIDTH 20 0
BBX 33 40 -6 -8
BITMAP
0000000000
0000000000
0000000000
0000000000
001ffff000
001ffff000
003fffe000
003fffe000
003e000000
007c000000
007c000000
007c000000
00fffe0000
00fffe0000
00fffe0000
01fffc0000
01fc1f0000
01fc1f0000
03f83e0000
03f83e0000
00003e0000
00007c0000
00007c0000
00007c0000
0f80f80000
0f80f80000
0f80f80000
1f01f00000
07ffc00000
07ffc00000
0fff800000
0fff800000
0000000000
0000000000
0000000000
0000000000
0000000000
0000000000
0000000000
0000000000
ENDCHAR
STARTCHAR U+0034
ENCODING 52
SWIDTH 1000 0
DWIDTH 20 0
BBX 33 40 -6 -8
BITMAP
0000000000
0000000000
0000000000
0000000000
00001f0000
00001f0000
00003e0000
00003e0000
0000fe0000
0001fc0000
0001fc0000
0001fc0000
000ff80000
000ff80000
000ff80000
001ff00000
007df00000
007df00000
00fbe00000
00fbe00000
03fffe0000
07fffc0000
07fffc0000
07fffc0000
000f800000
000f800000
000f800000
001f000000
001f000000
001f000000
003e000000
003e000000
0000000000
0000000000
0000000000
0000000000
0000000000
0000000000
0000000000
0000000000
ENDCHAR
STARTCHAR U+0033
ENCODING 51
SWIDTH 1000 0
DWIDTH 20 0
BBX 33 40 -6 -8
BITMAP
0000000000
0000000000
0000000000
0000000000
001ffff000
001ffff000
003fffe000
003fffe000
00000f8000
00001f0000
00001f0000
00001f0000
0000f80000
0000f80000
0000f80000
0001f00000
0007fc0000
0007fc0000
000ff80000
000ff80000
00003e0000
00007c0000
00007c0000
00007c0000
0f80f80000
0f80f80000
0f80f80000
1f01f00000
07ffc00000
07ffc00000
0fff800000
0fff800000
0000000000
0000000000
0000000000
0000000000
0000000000
0000000000
0000000000
0000000000
ENDCHAR
STARTCHAR U+0032
ENCODING 50
SWIDTH 1000 0
DWIDTH 20 0
BBX 33 40 -6 -8
BITMAP
0000000000
0000000000
0000000000
0000000000
0007ffc000
0007ffc000
000fff8000
000fff8000
003e03e000
007c07c000
007c07c000
007c07c000
00000f8000
00000f8000
00000f8000
00001f0000
0007fc0000
0007fc0000
000ff80000
000ff80000
00fe000000
01fc000000
01fc000000
01fc000000
0f80000000
0f80000000
0f80000000
1f00000000
1ffff00000
1ffff00000
3fffe00000
3fffe00000
0000000000
0000000000
0000000000
0000000000
0000000000
0000000000
0000000000
0000000000
ENDCHAR
STARTCHAR U+0031
ENCODING 49
SWIDTH 1000 0
DWIDTH 20 0
BBX 33 40 -6 -8
BITMAP
0000000000
0000000000
0000000000
0000000000
00007c0000
00007c0000
0000f80000
0000f80000
0003f80000
0007f00000
0007f00000
0007f00000
003fe00000
003fe00000
003fe00000
007fc00000
0007c00000
0007c00000
000f800000
000f800000
000f800000
001f000000
001f000000
001f000000
003e000000
003e000000
003e000000
007c000000
07ffc00000
07ffc00000
0fff800000
0fff800000
0000000000
0000000000
0000000000
0000000000
0000000000
0000000000
0000000000
0000000000
ENDCHAR
STARTCHAR U+0030
ENCODING 48
SWIDTH 1000 0
DWIDTH 20 0
BBX 33 40 -6 -8
BITMAP
0000000000
0000000000
0000000000
0000000000
0001ff0000
0001ff0000
0003fe0000
0003fe0000
000f8f8000
001f1f0000
001f1f0000
001f1f0000
00f80f8000
00f80f8000
00f80f8000
01f01f0000
01f01f0000
01f01f0000
03e03e0000
03e03e0000
03e03e0000
07c07c0000
07c07c0000
07c07c0000
03e3e00000
03e3e00000
03e3e00000
07c7c00000
01ff000000
01ff000000
03fe000000
03fe000000
0000000000
0000000000
0000000000
0000000000
0000000000
0000000000
0000000000
0000000000
ENDCHAR
STARTCHAR U+002F
ENCODING 47
SWIDTH 1000 0
DWIDTH 20 0
BBX 33 40 -6 -8
BITMAP
0000000000
0000000000
0000000000
0000000000
000001f000
000001f000
000003e000
000003e000
00000f8000
00001f0000
00001f0000
00001f0000
0000f80000
0000f80000
0000f80000
0001f00000
0007c00000
0007c00000
000f800000
000f800000
003e000000
007c000000
007c000000
007c000000
03e0000000
03e0000000
03e0000000
07c0000000
1f00000000
1f00000000
3e00000000
3e00000000
0000000000
0000000000
0000000000
0000000000
0000000000
0000000000
0000000000
0000000000
ENDCHAR
STARTCHAR U+002E
ENCODING 46
SWIDTH 1000 0
DWIDTH 20 0
BBX 33 40 -6 -8
BITMAP
0000000000
0000000000
0000000000
0000000000
0000000000
0000000000
0000000000
0000000000
0000000000
0000000000
0000000000
0000000000
0000000000
0000000000
0000000000
0000000000
0000000000
0000000000
0000000000
0000000000
0000000000
0000000000
0000000000
0000000000
00fe000000
00fe000000
00fe000000
01fc000000
01fc000000
01fc000000
03f8000000
03f8000000
0000000000
0000000000
0000000000
0000000000
0000000000
0000000000
0000000000
0000000000
ENDCHAR
STARTCHAR U+002D
ENCODING 45
SWIDTH 1000 0
DWIDTH 20 0
BBX 33 40 -6 -8
BITMAP
0000000000
0000000000
0000000000
0000000000
0000000000
0000000000
0000000000
0000000000
0000000000
0000000000
0000000000
0000000000
0000000000
0000000000
0000000000
0000000000
01ffff0000
01ffff0000
03fffe0000
03fffe0000
0000000000
0000000000
0000000000
0000000000
0000000000
0000000000
0000000000
0000000000
0000000000
0000000000
0000000000
0000000000
0000000000
0000000000
0000000000
0000000000
0000000000
0000000000
0000000000
0000000000
ENDCHAR
STARTCHAR U+002C
ENCODING 44
SWIDTH 1000 0
DWIDTH 20 0
BBX 33 40 -6 -8
BITMAP
0000000000
0000000000
0000000000
0000000000
0000000000
0000000000
0000000000
0000000000
0000000000
0000000000
0000000000
0000000000
0000000000
0000000000
0000000000
0000000000
0000000000
0000000000
0000000000
0000000000
0000000000
0000000000
0000000000
0000000000
00fe000000
00fe000000
00fe000000
01fc000000
01f0000000
01f0000000
03e0000000
03e0000000
0f80000000
1f00000000
1f00000000
1f00000000
0000000000
0000000000
0000000000
0000000000
ENDCHAR
STARTCHAR U+002B
ENCODING 43
SWIDTH 1000 0
DWIDTH 20 0
BBX 33 40 -6 -8
BITMAP
0000000000
0000000000
0000000000
0000000000
0000000000
0000000000
0000000000
0000000000
0000f80000
0001f00000
0001f00000
0001f00000
0003e00000
0003e00000
0003e00000
0007c00000
01ffff0000
01ffff0000
03fffe0000
03fffe0000
000f800000
001f000000
001f000000
001f000000
003e000000
003e000000
003e000000
007c000000
0000000000
0000000000
0000000000
0000000000
0000000000
0000000000
0000000000
0000000000
0000000000
0000000000
0000000000
0000000000
ENDCHAR
STARTCHAR U+002A
ENCODING 42
SWIDTH 1000 0
DWIDTH 20 0
BBX 33 40 -6 -8
BITMAP
0000000000
0000000000
0000000000
0000000000
0000000000
0000000000
0000000000
0000000000
000f8f8000
001f1f0000
001f1f0000
001f1f0000
000ff80000
000ff80000
000ff80000
001ff00000
01ffff0000
01ffff0000
03fffe0000
03fffe0000
003fe00000
007fc00000
007fc00000
007fc00000
03e3e00000
03e3e00000
03e3e00000
07c7c00000
0000000000
0000000000
0000000000
0000000000
0000000000
0000000000
0000000000
0000000000
0000000000
0000000000
0000000000
0000000000
ENDCHAR
STARTCHAR U+0029
ENCODING 41
SWIDTH 1000 0
DWIDTH 20 0
BBX 33 40 -6 -8
BITMAP
0000000000
0000000000
0000000000
0000000000
0001f00000
0001f00000
0003e00000
0003e00000
0000f80000
0001f00000
0001f00000
0001f00000
0000f80000
0000f80000
0000f80000
0001f00000
0001f00000
0001f00000
0003e00000
0003e00000
0003e00000
0007c00000
0007c00000
0007c00000
003e000000
003e000000
003e000000
007c000000
01f0000000
01f0000000
03e0000000
03e0000000
0000000000
0000000000
0000000000
0000000000
0000000000
0000000000
0000000000
0000000000
ENDCHAR
STARTCHAR U+0028
ENCODING 40
SWIDTH 1000 0
DWIDTH 20 0
BBX 33 40 -6 -8
BITMAP
0000000000
0000000000
0000000000
0000000000
00001f0000
00001f0000
00003e0000
00003e0000
0000f80000
0001f00000
0001f00000
0001f00000
000f800000
000f800000
000f800000
001f000000
001f000000
001f000000
003e000000
003e000000
003e000000
007c000000
007c000000
007c000000
003e000000
003e000000
003e000000
007c000000
001f000000
001f000000
003e000000
003e000000
0000000000
0000000000
0000000000
0000000000
0000000000
0000000000
0000000000
0000000000
ENDCHAR
STARTCHAR U+0027
ENCODING 39
SWIDTH 1000 0
DWIDTH 20 0
BBX 33 40 -6 -8
BITMAP
0000000000
0000000000
0000000000
0000000000
00007f0000
00007f0000
0000fe0000
0000fe0000
0000f80000
0001f00000
0001f00000
0001f00000
000f800000
000f800000
000f800000
001f000000
0000000000
0000000000
0000000000
0000000000
0000000000
0000000000
0000000000
0000000000
0000000000
0000000000
0000000000
0000000000
0000000000
0000000000
0000000000
0000000000
0000000000
0000000000
0000000000
0000000000
0000000000
0000000000
0000000000
0000000000
ENDCHAR
STARTCHAR U+0026
ENCODING 38
SWIDTH 1000 0
DWIDTH 20 0
BBX 33 40 -6 -8
BITMAP
0000000000
0000000000
0000000000
0000000000
0007fc0000
0007fc0000
000ff80000
000ff80000
003e3e0000
007c7c0000
007c7c0000
007c7c0000
00f8f80000
00f8f80000
00f8f80000
01f1f00000
007fc00000
007fc00000
00ff800000
00ff800000
03e3fe0000
07c7fc0000
07c7fc0000
07c7fc0000
0f83e00000
0f83e00000
0f83e00000
1f07c00000
07fff00000
07fff00000
0fffe00000
0fffe00000
0000000000
0000000000
0000000000
0000000000
0000000000
0000000000
0000000000
0000000000
ENDCHAR
STARTCHAR U+0025
ENCODING 37
SWIDTH 1000 0
DWIDTH 20 0
BBX 33 40 -6 -8
BITMAP
0000000000
0000000000
0000000000
0000000000
0007c1f000
0007c1f000
000f83e000
000f83e000
003fef8000
007fdf0000
007fdf0000
007fdf0000
003ef80000
003ef80000
003ef80000
007af00000
0007c00000
0007c00000
000f800000
000f800000
003eb80000
007df00000
007df00000
007df00000
03eff80000
03eff80000
03eff80000
07dff00000
1f07c00000
1f07c00000
3e0f800000
3e0f800000
0000000000
0000000000
0000000000
0000000000
0000000000
0000000000
0000000000
0000000000
ENDCHAR
STARTCHAR U+0024
ENCODING 36
SWIDTH 1000 0
DWIDTH 20 0
BBX 33 40 -6 -8
BITMAP
0000000000
0000000000
0000000000
0000000000
00007c0000
00007c0000
0000f80000
0000f80000
000fff8000
001fff0000
001fff0000
001fff0000
00fbe00000
00fbe00000
00fbe00000
01f7c00000
007ffc0000
007ffc0000
00fff80000
00fff80000
000fbe0000
001f7c0000
001f7c0000
001f7c0000
03ffe00000
03ffe00000
03ffe00000
07ffc00000
007c000000
007c000000
00f8000000
00f8000000
0000000000
0000000000
0000000000
0000000000
0000000000
0000000000
0000000000
0000000000
ENDCHAR
STARTCHAR U+0023
ENCODING 35
SWIDTH 1000 0
DWIDTH 20 0
BBX 33 40 -6 -8
BITMAP
0000000000
0000000000
0000000000
0000000000
0007df0000
0007df0000
000fbe0000
000fbe0000
000fbe0000
001f7c0000
001f7c0000
001f7c0000
00fffe0000
00fffe0000
00fffe0000
01fffc0000
007df00000
007df00000
00fbe00000
00fbe00000
03fff80000
07fff00000
07fff00000
07fff00000
03ef800000
03ef800000
03ef800000
07df000000
07df000000
07df000000
0fbe000000
0fbe000000
0000000000
0000000000
0000000000
0000000000
0000000000
0000000000
0000000000
0000000000
ENDCHAR
STARTCHAR U+0022
ENCODING 34
SWIDTH 1000 0
DWIDTH 20 0
BBX 33 40 -6 -8
BITMAP
0000000000
0000000000
0000000000
0000000000
0007df0000
0007df0000
000fbe0000
000fbe0000
000fbe0000
001f7c0000
001f7c0000
001f7c0000
003ef80000
003ef80000
003ef80000
007df00000
0000000000
0000000000
0000000000
0000000000
0000000000
0000000000
0000000000
0000000000
0000000000
0000000000
0000000000
0000000000
0000000000
0000000000
0000000000
0000000000
0000000000
0000000000
0000000000
0000000000
0000000000
0000000000
0000000000
0000000000
ENDCHAR
STARTCHAR U+0021
ENCODING 33
SWIDTH 1000 0
DWIDTH 20 0
BBX 33 40 -6 -8
BITMAP
0000000000
0000000000
0000000000
0000000000
00007c0000
00007c0000
0000f80000
0000f80000
0000f80000
0001f00000
0001f00000
0001f00000
0003e00000
0003e00000
0003e00000
0007c00000
0007c00000
0007c00000
000f800000
000f800000
000f800000
001f000000
001f000000
001f000000
0000000000
0000000000
0000000000
0000000000
007c000000
007c000000
00f8000000
00f8000000
0000000000
0000000000
0000000000
0000000000
0000000000
0000000000
0000000000
0000000000
ENDCHAR
STARTCHAR U+2E2E
ENCODING 11822
SWIDTH 1000 0
DWIDTH 20 0
BBX 33 40 -6 -8
BITMAP
0000000000
0000000000
0000000000
0000000000
0007ffc000
0007ffc000
000fff8000
000fff8000
003e03e000
007c07c000
007c07c000
007c07c000
003f800000
003f800000
003f800000
007f000000
0007c00000
0007c00000
000f800000
000f800000
000f800000
001f000000
001f000000
001f000000
0000000000
0000000000
0000000000
0000000000
007c000000
007c000000
00f8000000
00f8000000
0000000000
0000000000
0000000000
0000000000
0000000000
0000000000
0000000000
0000000000
ENDCHAR
STARTCHAR U+00b7
ENCODING 183
SWIDTH 1000 0
DWIDTH 20 0
BBX 33 40 -6 -8
BITMAP
0000000000
0000000000
0000000000
0000000000
0000000000
0000000000
0000000000
0000000000
0000000000
0000000000
0000000000
0000000000
0000000000
0000000000
0000000000
0000000000
0007c00000
0007c00000
000f800000
000f800000
0000000000
0000000000
0000000000
0000000000
0000000000
0000000000
0000000000
0000000000
0000000000
0000000000
0000000000
0000000000
0000000000
0000000000
0000000000
0000000000
0000000000
0000000000
0000000000
0000000000
ENDCHAR
STARTCHAR U+00A3
ENCODING 163
SWIDTH 1000 0
DWIDTH 20 0
BBX 33 40 -6 -8
BITMAP
0000000000
0000000000
0000000000
0000000000
00007fc000
00007fc000
0000ff8000
0000ff8000
0003e3e000
0007c7c000
0007c7c000
0007c7c000
000f800000
000f800000
000f800000
001f000000
01fff00000
01fff00000
03ffe00000
03ffe00000
003e000000
007c000000
007c000000
007c000000
03ff800000
03ff800000
03ff800000
07ff000000
1ff7f00000
1ff7f00000
3fefe00000
3fefe00000
0f80000000
1f00000000
1f00000000
1f00000000
0000000000
0000000000
0000000000
0000000000
ENDCHAR
STARTCHAR U+2260
ENCODING 8800
SWIDTH 1000 0
DWIDTH 20 0
BBX 33 40 -6 -8
BITMAP
0000000000
0000000000
0000000000
0000000000
000001f000
000001f000
000003e000
000003e000
00000f8000
00001f0000
00001f0000
00001f0000
00ffff8000
00ffff8000
00ffff8000
01ffff0000
0007c00000
0007c00000
000f800000
000f800000
03fffe0000
07fffc0000
07fffc0000
07fffc0000
03e0000000
03e0000000
03e0000000
07c0000000
1f00000000
1f00000000
3e00000000
3e00000000
0000000000
0000000000
0000000000
0000000000
0000000000
0000000000
0000000000
0000000000
ENDCHAR
STARTCHAR U+03C0
ENCODING 960
SWIDTH 1000 0
DWIDTH 20 0
BBX 33 40 -6 -8
BITMAP
0000000000
0000000000
0000000000
0000000000
0000000000
0000000000
0000000000
0000000000
0000000000
0000000000
0000000000
0000000000
00ffff8000
00ffff8000
00ffff8000
01ffff0000
001f7c0000
001f7c0000
003ef80000
003ef80000
003ef80000
007df00000
007df00000
007df00000
00fbe00000
00fbe00000
00fbe00000
01f7c00000
07c7c00000
07c7c00000
0f8f800000
0f8f800000
0000000000
0000000000
0000000000
0000000000
0000000000
0000000000
0000000000
0000000000
ENDCHAR
STARTCHAR U+2265
ENCODING 8805
SWIDTH 1000 0
DWIDTH 20 0
BBX 33 40 -6 -8
BITMAP
0000000000
0000000000
0000000000
0000000000
001f000000
001f000000
003e000000
003e000000
0006e00000
0007c00000
0007c00000
0007c00000
0000f80000
0000f80000
0000f80000
0001e80000
00001f0000
00001f0000
00003e0000
00003e0000
0003e00000
0007c00000
0007c00000
000fc00000
00f8000000
00f8000000
01b8000000
01f0000000
1f00000000
1f00000000
3e00000000
3e00000000
3fffe00000
7fffc00000
7fffc00000
7fffc00000
0000000000
0000000000
0000000000
0000000000
ENDCHAR
STARTCHAR U+2264
ENCODING 8804
SWIDTH 1000 0
DWIDTH 20 0
BBX 33 40 -6 -8
BITMAP
0000000000
0000000000
0000000000
0000000000
000001f000
000001f000
000003e000
000003e000
00003e0000
00007c0000
00007c0000
0000fc0000
000f800000
000f800000
001b800000
001f000000
01f0000000
01f0000000
03e0000000
03e0000000
006e000000
007c000000
007c000000
007c000000
000f800000
000f800000
000f800000
001e800000
0001f00000
0001f00000
0003e00000
0003e00000
3fffe00000
7fffc00000
7fffc00000
7fffc00000
0000000000
0000000000
0000000000
0000000000
ENDCHAR
STARTCHAR U+2502
ENCODING 9474
SWIDTH 1000 0
DWIDTH 20 0
BBX 33 40 -6 -8
BITMAP
00003e0000
00003e0000
00003e0000
00007c0000
00007c0000
00007c0000
0000f80000
0000f80000
0000f80000
0001f00000
0001f00000
0001f00000
0003e00000
0003e00000
0003e00000
0007c00000
0007c00000
0007c00000
000f800000
000f800000
000f800000
001f000000
001f000000
001f000000
003e000000
003e000000
003e000000
007c000000
007c000000
007c000000
00f8000000
00f8000000
00f8000000
01f0000000
01f0000000
01f0000000
03e0000000
03e0000000
03e0000000
07c0000000
ENDCHAR
STARTCHAR U+252C
ENCODING 9516
SWIDTH 1000 0
DWIDTH 20 0
BBX 33 40 -6 -8
BITMAP
0000000000
0000000000
0000000000
0000000000
0000000000
0000000000
0000000000
0000000000
0000000000
0000000000
0000000000
0000000000
0000000000
0000000000
0000000000
0000000000
01fffff000
01fffff000
03ffffe000
03ffffe000
000f800000
001f000000
001f000000
001f000000
003e000000
003e000000
003e000000
007c000000
007c000000
007c000000
00f8000000
00f8000000
00f8000000
01f0000000
01f0000000
01f0000000
03e0000000
03e0000000
03e0000000
07c0000000
ENDCHAR
STARTCHAR U+2534
ENCODING 9524
SWIDTH 1000 0
DWIDTH 20 0
BBX 33 40 -6 -8
BITMAP
00003e0000
00003e0000
00003e0000
00007c0000
00007c0000
00007c0000
0000f80000
0000f80000
0000f80000
0001f00000
0001f00000
0001f00000
0003e00000
0003e00000
0003e00000
0007c00000
01fffff000
01fffff000
03ffffe000
03ffffe000
0000000000
0000000000
0000000000
0000000000
0000000000
0000000000
0000000000
0000000000
0000000000
0000000000
0000000000
0000000000
0000000000
0000000000
0000000000
0000000000
0000000000
0000000000
0000000000
0000000000
ENDCHAR
STARTCHAR U+2524
ENCODING 9508
SWIDTH 1000 0
DWIDTH 20 0
BBX 33 40 -6 -8
BITMAP
00003e0000
00003e0000
00003e0000
00007c0000
00007c0000
00007c0000
0000f80000
0000f80000
0000f80000
0001f00000
0001f00000
0001f00000
0003e00000
0003e00000
0003e00000
0007c00000
01ffc00000
01ffc00000
03ff800000
03ff800000
000f800000
001f000000
001f000000
001f000000
003e000000
003e000000
003e000000
007c000000
007c000000
007c000000
00f8000000
00f8000000
00f8000000
01f0000000
01f0000000
01f0000000
03e0000000
03e0000000
03e0000000
07c0000000
ENDCHAR
STARTCHAR U+251C
ENCODING 9500
SWIDTH 1000 0
DWIDTH 20 0
BBX 33 40 -6 -8
BITMAP
00003e0000
00003e0000
00003e0000
00007c0000
00007c0000
00007c0000
0000f80000
0000f80000
0000f80000
0001f00000
0001f00000
0001f00000
0003e00000
0003e00000
0003e00000
0007c00000
0007fff000
0007fff000
000fffe000
000fffe000
000f800000
001f000000
001f000000
001f000000
003e000000
003e000000
003e000000
007c000000
007c000000
007c000000
00f8000000
00f8000000
00f8000000
01f0000000
01f0000000
01f0000000
03e0000000
03e0000000
03e0000000
07c0000000
ENDCHAR
STARTCHAR U+23BD
ENCODING 9149
SWIDTH 1000 0
DWIDTH 20 0
BBX 33 40 -6 -8
BITMAP
0000000000
0000000000
0000000000
0000000000
0000000000
0000000000
0000000000
0000000000
0000000000
0000000000
0000000000
0000000000
0000000000
0000000000
0000000000
0000000000
0000000000
0000000000
0000000000
0000000000
0000000000
0000000000
0000000000
0000000000
0000000000
0000000000
0000000000
0000000000
0000000000
0000000000
0000000000
0000000000
3ffffe0000
7ffffc0000
7ffffc0000
7ffffc0000
0000000000
0000000000
0000000000
0000000000
ENDCHAR
STARTCHAR U+23BC
ENCODING 9148
SWIDTH 1000 0
DWIDTH 20 0
BBX 33 40 -6 -8
BITMAP
0000000000
0000000000
0000000000
0000000000
0000000000
0000000000
0000000000
0000000000
0000000000
0000000000
0000000000
0000000000
0000000000
0000000000
0000000000
0000000000
0000000000
0000000000
0000000000
0000000000
0000000000
0000000000
0000000000
0000000000
0fffff8000
0fffff8000
0fffff8000
1fffff0000
0000000000
0000000000
0000000000
0000000000
0000000000
0000000000
0000000000
0000000000
0000000000
0000000000
0000000000
0000000000
ENDCHAR
STARTCHAR U+2500
ENCODING 9472
SWIDTH 1000 0
DWIDTH 20 0
BBX 33 40 -6 -8
BITMAP
0000000000
0000000000
0000000000
0000000000
0000000000
0000000000
0000000000
0000000000
0000000000
0000000000
0000000000
0000000000
0000000000
0000000000
0000000000
0000000000
01fffff000
01fffff000
03ffffe000
03ffffe000
0000000000
0000000000
0000000000
0000000000
0000000000
0000000000
0000000000
0000000000
0000000000
0000000000
0000000000
0000000000
0000000000
0000000000
0000000000
0000000000
0000000000
0000000000
0000000000
0000000000
ENDCHAR
STARTCHAR U+23BB
ENCODING 9147
SWIDTH 1000 0
DWIDTH 20 0
BBX 33 40 -6 -8
BITMAP
0000000000
0000000000
0000000000
0000000000
0000000000
0000000000
0000000000
0000000000
003ffffe00
007ffffc00
007ffffc00
007ffffc00
0000000000
0000000000
0000000000
0000000000
0000000000
0000000000
0000000000
0000000000
0000000000
0000000000
0000000000
0000000000
0000000000
0000000000
0000000000
0000000000
0000000000
0000000000
0000000000
0000000000
0000000000
0000000000
0000000000
0000000000
0000000000
0000000000
0000000000
0000000000
ENDCHAR
STARTCHAR U+23BA
ENCODING 9146
SWIDTH 1000 0
DWIDTH 20 0
BBX 33 40 -6 -8
BITMAP
000fffff80
000fffff80
000fffff80
001fffff00
0000000000
0000000000
0000000000
0000000000
0000000000
0000000000
0000000000
0000000000
0000000000
0000000000
0000000000
0000000000
0000000000
0000000000
0000000000
0000000000
0000000000
0000000000
0000000000
0000000000
0000000000
0000000000
0000000000
0000000000
0000000000
0000000000
0000000000
0000000000
0000000000
0000000000
0000000000
0000000000
0000000000
0000000000
0000000000
0000000000
ENDCHAR
STARTCHAR U+253C
ENCODING 9532
SWIDTH 1000 0
DWIDTH 20 0
BBX 33 40 -6 -8
BITMAP
00003e0000
00003e0000
00003e0000
00007c0000
00007c0000
00007c0000
0000f80000
0000f80000
0000f80000
0001f00000
0001f00000
0001f00000
0003e00000
0003e00000
0003e00000
0007c00000
01fffff000
01fffff000
03ffffe000
03ffffe000
000f800000
001f000000
001f000000
001f000000
003e000000
003e000000
003e000000
007c000000
007c000000
007c000000
00f8000000
00f8000000
00f8000000
01f0000000
01f0000000
01f0000000
03e0000000
03e0000000
03e0000000
07c0000000
ENDCHAR
STARTCHAR U+2514
ENCODING 9492
SWIDTH 1000 0
DWIDTH 20 0
BBX 33 40 -6 -8
BITMAP
00003e0000
00003e0000
00003e0000
00007c0000
00007c0000
00007c0000
0000f80000
0000f80000
0000f80000
0001f00000
0001f00000
0001f00000
0003e00000
0003e00000
0003e00000
0007c00000
0007fff000
0007fff000
000fffe000
000fffe000
0000000000
0000000000
0000000000
0000000000
0000000000
0000000000
0000000000
0000000000
0000000000
0000000000
0000000000
0000000000
0000000000
0000000000
0000000000
0000000000
0000000000
0000000000
0000000000
0000000000
ENDCHAR
STARTCHAR U+250C
ENCODING 9484
SWIDTH 1000 0
DWIDTH 20 0
BBX 33 40 -6 -8
BITMAP
0000000000
0000000000
0000000000
0000000000
0000000000
0000000000
0000000000
0000000000
0000000000
0000000000
0000000000
0000000000
0000000000
0000000000
0000000000
0000000000
0007fff000
0007fff000
000fffe000
000fffe000
000f800000
001f000000
001f000000
001f000000
003e000000
003e000000
003e000000
007c000000
007c000000
007c000000
00f8000000
00f8000000
00f8000000
01f0000000
01f0000000
01f0000000
03e0000000
03e0000000
03e0000000
07c0000000
ENDCHAR
STARTCHAR U+2510
ENCODING 9488
SWIDTH 1000 0
DWIDTH 20 0
BBX 33 40 -6 -8
BITMAP
0000000000
0000000000
0000000000
0000000000
0000000000
0000000000
0000000000
0000000000
0000000000
0000000000
0000000000
0000000000
0000000000
0000000000
0000000000
0000000000
01ffc00000
01ffc00000
03ff800000
03ff800000
000f800000
001f000000
001f000000
001f000000
003e000000
003e000000
003e000000
007c000000
007c000000
007c000000
00f8000000
00f8000000
00f8000000
01f0000000
01f0000000
01f0000000
03e0000000
03e0000000
03e0000000
07c0000000
ENDCHAR
STARTCHAR U+2518
ENCODING 9496
SWIDTH 1000 0
DWIDTH 20 0
BBX 33 40 -6 -8
BITMAP
00003e0000
00003e0000
00003e0000
00007c0000
00007c0000
00007c0000
0000f80000
0000f80000
0000f80000
0001f00000
0001f00000
0001f00000
0003e00000
0003e00000
0003e00000
0007c00000
01ffc00000
01ffc00000
03ff800000
03ff800000
0000000000
0000000000
0000000000
0000000000
0000000000
0000000000
0000000000
0000000000
0000000000
0000000000
0000000000
0000000000
0000000000
0000000000
0000000000
0000000000
0000000000
0000000000
0000000000
0000000000
ENDCHAR
STARTCHAR U+240B
ENCODING 9227
SWIDTH 1000 0
DWIDTH 20 0
BBX 33 40 -6 -8
BITMAP
0000000000
0000000000
0000000000
0000000000
001f1f0000
001f1f0000
003e3e0000
003e3e0000
003e3e0000
007c7c0000
007c7c0000
007c7c0000
003fe00000
003fe00000
003fe00000
007fc00000
007fc00000
007fc00000
00ff800000
00ff800000
003ffe0000
007ffc0000
007ffc0000
007ffc0000
000f800000
000f800000
000f800000
001f000000
001f000000
001f000000
003e000000
003e000000
003e000000
007c000000
007c000000
007c000000
00f8000000
00f8000000
00f8000000
01f0000000
ENDCHAR
STARTCHAR U+2424
ENCODING 9252
SWIDTH 1000 0
DWIDTH 20 0
BBX 33 40 -6 -8
BITMAP
0000000000
0000000000
0000000000
0000000000
001f1f0000
001f1f0000
003e3e0000
003e3e0000
003fbe0000
007f7c0000
007f7c0000
007f7c0000
00fff80000
00fff80000
00fff80000
01fff00000
01f7f00000
01f7f00000
03efe00000
03efe00000
03efe00000
07dfc00000
07dfc00000
07dfc00000
003e000000
003e000000
003e000000
007c000000
007c000000
007c000000
00f8000000
00f8000000
00f8000000
01f0000000
01f0000000
01f0000000
03ff800000
03ff800000
03ff800000
07ff000000
ENDCHAR
STARTCHAR U+00B1
ENCODING 177
SWIDTH 1000 0
DWIDTH 20 0
BBX 33 40 -6 -8
BITMAP
0000000000
0000000000
0000000000
0000000000
0000000000
0000000000
0000000000
0000000000
0000f80000
0001f00000
0001f00000
0001f00000
0003e00000
0003e00000
0003e00000
0007c00000
01ffff0000
01ffff0000
03fffe0000
03fffe0000
000f800000
001f000000
001f000000
001f000000
003e000000
003e000000
003e000000
007c000000
1ffff00000
1ffff00000
3fffe00000
3fffe00000
0000000000
0000000000
0000000000
0000000000
0000000000
0000000000
0000000000
0000000000
ENDCHAR
STARTCHAR U+00B0
ENCODING 176
SWIDTH 1000 0
DWIDTH 20 0
BBX 33 40 -6 -8
BITMAP
0000000000
0000000000
0000000000
0000000000
0001ff0000
0001ff0000
0003fe0000
0003fe0000
000f8f8000
001f1f0000
001f1f0000
001f1f0000
000ff80000
000ff80000
000ff80000
001ff00000
0000000000
0000000000
0000000000
0000000000
0000000000
0000000000
0000000000
0000000000
0000000000
0000000000
0000000000
0000000000
0000000000
0000000000
0000000000
0000000000
0000000000
0000000000
0000000000
0000000000
0000000000
0000000000
0000000000
0000000000
ENDCHAR
STARTCHAR U+240A
ENCODING 9226
SWIDTH 1000 0
DWIDTH 20 0
BBX 33 40 -6 -8
BITMAP
0000000000
0000000000
0000000000
0000000000
001f000000
001f000000
003e000000
003e000000
003e000000
007c000000
007c000000
007c000000
00f8000000
00f8000000
00f8000000
01f0000000
01f0000000
01f0000000
03e0000000
03e0000000
03fffe0000
07fffc0000
07fffc0000
07fffc0000
003e000000
003e000000
003e000000
007c000000
007fc00000
007fc00000
00ff800000
00ff800000
00f8000000
01f0000000
01f0000000
01f0000000
03e0000000
03e0000000
03e0000000
07c0000000
ENDCHAR
STARTCHAR U+240D
ENCODING 9229
SWIDTH 1000 0
DWIDTH 20 0
BBX 33 40 -6 -8
BITMAP
0000000000
0000000000
0000000000
0000000000
0007fc0000
0007fc0000
000ff80000
000ff80000
003e000000
007c000000
007c000000
007c000000
00f8000000
00f8000000
00f8000000
01f0000000
01f0000000
01f0000000
03e0000000
03e0000000
00fff80000
01fff00000
01fff00000
01fff00000
003ef80000
003ef80000
003ef80000
007df00000
007fc00000
007fc00000
00ff800000
00ff800000
00fbe00000
01f7c00000
01f7c00000
01f7c00000
03ef800000
03ef800000
03ef800000
07df000000
ENDCHAR
STARTCHAR U+240C
ENCODING 9228
SWIDTH 1000 0
DWIDTH 20 0
BBX 33 40 -6 -8
BITMAP
0000000000
0000000000
0000000000
0000000000
001ffc0000
001ffc0000
003ff80000
003ff80000
003e000000
007c000000
007c000000
007c000000
00ff800000
00ff800000
00ff800000
01ff000000
01f0000000
01f0000000
03e0000000
03e0000000
03effe0000
07dffc0000
07dffc0000
07dffc0000
003e000000
003e000000
003e000000
007c000000
007fc00000
007fc00000
00ff800000
00ff800000
00f8000000
01f0000000
01f0000000
01f0000000
03e0000000
03e0000000
03e0000000
07c0000000
ENDCHAR
STARTCHAR U+2409
ENCODING 9225
SWIDTH 1000 0
DWIDTH 20 0
BBX 33 40 -6 -8
BITMAP
0000000000
0000000000
0000000000
0000000000
001f7c0000
001f7c0000
003ef80000
003ef80000
003ef80000
007df00000
007df00000
007df00000
00ffe00000
00ffe00000
00ffe00000
01ffc00000
01f7c00000
01f7c00000
03ef800000
03ef800000
03fffe0000
07fffc0000
07fffc0000
07fffc0000
000f800000
000f800000
000f800000
001f000000
001f000000
001f000000
003e000000
003e000000
003e000000
007c000000
007c000000
007c000000
00f8000000
00f8000000
00f8000000
01f0000000
ENDCHAR
STARTCHAR U+2592
ENCODING 9618
SWIDTH 1000 0
DWIDTH 20 0
BBX 33 40 -6 -8
BITMAP
0000000000
0000000000
0000000000
0000000000
001f7df000
001f7df000
003efbe000
003efbe000
000f9b8000
001f1f0000
001f1f0000
001f3f0000
00fbef8000
00fbef8000
00faef8000
01f7af0000
007c7c0000
007c7c0000
00f8f80000
00f8f80000
03ebbe0000
07df7c0000
07df7c0000
07df7c0000
03e3e00000
03e3e00000
03e6e00000
07a7c00000
1f7df00000
1f7df00000
3efbe00000
3efbe00000
0000000000
0000000000
0000000000
0000000000
0000000000
0000000000
0000000000
0000000000
ENDCHAR
STARTCHAR U+25C6
ENCODING 9670
SWIDTH 1000 0
DWIDTH 20 0
BBX 33 40 -6 -8
BITMAP
0000000000
0000000000
0000000000
0000000000
00007c0000
00007c0000
0000f80000
0000f80000
0003fe0000
0007fc0000
0007fc0000
0007fc0000
003ffe0000
003ffe0000
003ffe0000
007ffc0000
01ffff0000
01ffff0000
03fffe0000
03fffe0000
00fff80000
01fff00000
01fff00000
01fff00000
00ff800000
00ff800000
00ff800000
01ff000000
007c000000
007c000000
00f8000000
00f8000000
0000000000
0000000000
0000000000
0000000000
0000000000
0000000000
0000000000
0000000000
ENDCHAR
STARTCHAR U+0020
ENCODING 32
SWIDTH 1000 0
DWIDTH 20 0
BBX 33 40 -6 -8
BITMAP
0000000000
0000000000
0000000000
0000000000
0000000000
0000000000
0000000000
0000000000
0000000000
0000000000
0000000000
0000000000
0000000000
0000000000
0000000000
0000000000
0000000000
0000000000
0000000000
0000000000
0000000000
0000000000
0000000000
0000000000
0000000000
0000000000
0000000000
0000000000
0000000000
0000000000
0000000000
0000000000
0000000000
0000000000
0000000000
0000000000
0000000000
0000000000
0000000000
0000000000
ENDCHAR
ENDFONT
